<svg id="Grupo_7197" data-name="Grupo 7197" xmlns="http://www.w3.org/2000/svg" width="38" height="60" viewBox="0 0 38 60">
  <path id="Caminho_916" data-name="Caminho 916" d="M19,0A19,19,0,0,1,38,19V41A19,19,0,0,1,0,41V19A19,19,0,0,1,19,0Z" fill="#ec0000"/>
  <g id="Grupo_80" data-name="Grupo 80" transform="translate(7.034 13.332)">
    <g id="click">
      <path id="Caminho_69" data-name="Caminho 69" d="M20.574,34.551A10.587,10.587,0,0,0,31.149,23.976v-7.4a10.574,10.574,0,0,0-21.149,0v7.4A10.587,10.587,0,0,0,20.574,34.551Zm9.517-17.976H22.161V14.46A1.586,1.586,0,0,0,21.1,12.971V7.084A9.521,9.521,0,0,1,30.091,16.574ZM20.046,14.46a.529.529,0,1,1,1.057,0v3.172a.529.529,0,1,1-1.057,0Zm0-7.375v5.886a1.586,1.586,0,0,0-1.057,1.489v2.115H11.057a9.521,9.521,0,0,1,8.988-9.49ZM11.057,17.632h7.931a1.586,1.586,0,1,0,3.172,0h7.931v6.345a9.517,9.517,0,1,1-19.034,0Z" transform="translate(-8.414 -2.828)" fill="#fff"/>
      <path id="Caminho_70" data-name="Caminho 70" d="M29.529,47.988a8.47,8.47,0,0,0,8.46-8.46.529.529,0,0,0-1.057,0,7.41,7.41,0,0,1-7.4,7.4.529.529,0,1,0,0,1.057Z" transform="translate(-17.368 -18.38)" fill="#fff"/>
      <path id="Caminho_71" data-name="Caminho 71" d="M17.057,3.172V.529A.529.529,0,0,0,16,.529V3.172a.529.529,0,0,0,1.057,0Z" transform="translate(-11.242 0)" fill="#fff"/>
      <path id="Caminho_72" data-name="Caminho 72" d="M12.034,5.563a.529.529,0,0,0,.374-.9l-1.869-1.87a.529.529,0,1,0-.748.748L11.66,5.408a.529.529,0,0,0,.374.155Z" transform="translate(-8.242 -1.242)" fill="#fff"/>
      <path id="Caminho_73" data-name="Caminho 73" d="M7,9.529a.529.529,0,0,0,.529.529h2.644a.529.529,0,0,0,0-1.057H7.529A.529.529,0,0,0,7,9.529Z" transform="translate(-7 -4.242)" fill="#fff"/>
    </g>
  </g>
</svg>
