<svg xmlns="http://www.w3.org/2000/svg" xmlns:xlink="http://www.w3.org/1999/xlink" width="1920" height="1324" viewBox="0 0 1920 1324">
  <defs>
    <clipPath id="clip-path">
      <rect id="Retângulo_2664" data-name="Retângulo 2664" width="1920" height="1324" transform="translate(0 2164)" fill="#fff"/>
    </clipPath>
    <clipPath id="clip-path-2">
      <rect id="Retângulo_2663" data-name="Retângulo 2663" width="2815" height="2134" fill="none"/>
    </clipPath>
    <clipPath id="clip-path-4">
      <rect id="Retângulo_2640" data-name="Retângulo 2640" width="2332" height="2029" fill="none"/>
    </clipPath>
    <clipPath id="clip-path-5">
      <rect id="Retângulo_2641" data-name="Retângulo 2641" width="2340" height="2007" transform="translate(0.248 0.024)" fill="none"/>
    </clipPath>
    <clipPath id="clip-path-6">
      <rect id="Retângulo_2642" data-name="Retângulo 2642" width="2349" height="2000" transform="translate(0.307 -0.053)" fill="none"/>
    </clipPath>
    <clipPath id="clip-path-7">
      <rect id="Retângulo_2643" data-name="Retângulo 2643" width="2359" height="1995" transform="translate(-0.445 -0.03)" fill="none"/>
    </clipPath>
    <clipPath id="clip-path-8">
      <rect id="Retângulo_2644" data-name="Retângulo 2644" width="2368" height="1990" transform="translate(-0.197 -0.008)" fill="none"/>
    </clipPath>
    <clipPath id="clip-path-9">
      <rect id="Retângulo_2645" data-name="Retângulo 2645" width="2377" height="1985" transform="translate(0.051 0.016)" fill="none"/>
    </clipPath>
    <clipPath id="clip-path-10">
      <rect id="Retângulo_2646" data-name="Retângulo 2646" width="2388" height="1978" transform="translate(0.486 -0.059)" fill="none"/>
    </clipPath>
    <clipPath id="clip-path-11">
      <rect id="Retângulo_2647" data-name="Retângulo 2647" width="2398" height="1974" transform="translate(-0.266 -0.037)" fill="none"/>
    </clipPath>
    <clipPath id="clip-path-12">
      <rect id="Retângulo_2648" data-name="Retângulo 2648" width="2408" height="1968" transform="translate(-0.018 -0.014)" fill="none"/>
    </clipPath>
    <clipPath id="clip-path-13">
      <rect id="Retângulo_2649" data-name="Retângulo 2649" width="2425" height="1962" transform="translate(0.23 -0.091)" fill="none"/>
    </clipPath>
    <clipPath id="clip-path-14">
      <rect id="Retângulo_2650" data-name="Retângulo 2650" width="2443" height="1955" transform="translate(0.477 -0.165)" fill="none"/>
    </clipPath>
    <clipPath id="clip-path-15">
      <rect id="Retângulo_2651" data-name="Retângulo 2651" width="2466" height="1951" transform="translate(-0.275 -0.142)" fill="none"/>
    </clipPath>
    <clipPath id="clip-path-16">
      <rect id="Retângulo_2652" data-name="Retângulo 2652" width="2487" height="1945" transform="translate(-0.027 -0.119)" fill="none"/>
    </clipPath>
    <clipPath id="clip-path-17">
      <rect id="Retângulo_2653" data-name="Retângulo 2653" width="2509" height="1940" transform="translate(0.221 -0.095)" fill="none"/>
    </clipPath>
    <clipPath id="clip-path-18">
      <rect id="Retângulo_2654" data-name="Retângulo 2654" width="2532" height="1934" transform="translate(0.468 -0.172)" fill="none"/>
    </clipPath>
    <clipPath id="clip-path-19">
      <rect id="Retângulo_2655" data-name="Retângulo 2655" width="2557" height="1929" transform="translate(-0.284 -0.149)" fill="none"/>
    </clipPath>
    <clipPath id="clip-path-20">
      <rect id="Retângulo_2656" data-name="Retângulo 2656" width="2582" height="1923" transform="translate(-0.036 -0.125)" fill="none"/>
    </clipPath>
    <clipPath id="clip-path-21">
      <rect id="Retângulo_2657" data-name="Retângulo 2657" width="2606" height="1918" transform="translate(0.211 -0.103)" fill="none"/>
    </clipPath>
    <clipPath id="clip-path-22">
      <rect id="Retângulo_2658" data-name="Retângulo 2658" width="2634" height="1912" transform="translate(-0.353 -0.178)" fill="none"/>
    </clipPath>
    <clipPath id="clip-path-23">
      <rect id="Retângulo_2659" data-name="Retângulo 2659" width="2660" height="1906" transform="translate(-0.105 -0.254)" fill="none"/>
    </clipPath>
    <clipPath id="clip-path-24">
      <rect id="Retângulo_2660" data-name="Retângulo 2660" width="2687" height="1902" transform="translate(0.143 -0.231)" fill="none"/>
    </clipPath>
    <clipPath id="clip-path-25">
      <rect id="Retângulo_2661" data-name="Retângulo 2661" width="2716" height="1896" transform="translate(0.39 -0.21)" fill="none"/>
    </clipPath>
  </defs>
  <g id="Grupo_de_máscara_145" data-name="Grupo de máscara 145" transform="translate(0 -2164)" clip-path="url(#clip-path)">
    <g id="Grupo_6293" data-name="Grupo 6293" transform="translate(-190.621 1233.227)">
      <g id="Grupo_6292" data-name="Grupo 6292" clip-path="url(#clip-path-2)">
        <g id="Grupo_6291" data-name="Grupo 6291" style="mix-blend-mode: multiply;isolation: isolate">
          <g id="Grupo_6290" data-name="Grupo 6290">
            <g id="Grupo_6289" data-name="Grupo 6289" clip-path="url(#clip-path-2)">
              <g id="Grupo_6225" data-name="Grupo 6225" transform="translate(0)">
                <g id="Grupo_6224" data-name="Grupo 6224">
                  <g id="Grupo_6223" data-name="Grupo 6223" clip-path="url(#clip-path-4)">
                    <path id="Caminho_2079" data-name="Caminho 2079" d="M1.888,2010.46c-12.9-116.506,90.2-214.693,193.958-232.8s207.76,19.291,310.57,43.234,217.552,32.09,303.431-35.474c109.792-86.382,135.745-268.068,248.694-349.2,88.036-63.237,202.524-44.827,292.721,2.217,51,26.6,94.045,71.927,142.791,103.1,221.061,141.354,235.8,430.28,423.613,473.356,203.351,46.643,313.837-65.026,352.217-141.9,49.159-98.463,131.837-353.451-69.016-531-81.6-72.128-162.488-148.912-222.516-243.884-89.869-142.19-88.75-360.294,26.178-477.79,78.768-80.526,198.755-109.6,252.264-212.844,35.965-69.394,30.913-158.213,0-230.581S2172.507,47.054,2114,.637" transform="translate(0.881 0.679)" fill="none" stroke="#8a8a8a" stroke-miterlimit="10" stroke-width="1"/>
                  </g>
                </g>
              </g>
              <g id="Grupo_6228" data-name="Grupo 6228" transform="translate(4.752 10.977)">
                <g id="Grupo_6227" data-name="Grupo 6227" transform="translate(0)">
                  <g id="Grupo_6226" data-name="Grupo 6226" clip-path="url(#clip-path-5)">
                    <path id="Caminho_2080" data-name="Caminho 2080" d="M3.118,2008.011c-8.9-119.85,93.051-223.281,199.907-243.884,104.3-20.109,210.131,17.912,312.95,44.343,101.608,26.12,214.255,37.029,299.861-24.388,109.347-78.59,140.643-250.288,253.454-330.352,89.866-63.439,201.563-52.209,293.911-11.086,53.049,23.631,100.069,65.938,151.12,97.553,216.418,134.032,235.13,413.136,418.853,455.619,197.614,45.608,307.579-58.5,347.458-134.136,50.535-95.852,127.912-342.177-61.876-517.7-78.244-72.365-155.126-150.6-214.186-244.992-87.221-138.819-88.242-349.121,20.229-465.6,75.047-80.584,191.842-113.148,245.124-215.061,36.572-69.671,34.151-157.672,7.139-230.581-27.263-73.588-77.053-134.2-133.271-184.021" transform="translate(-0.342 -2.306)" fill="none" stroke="#909090" stroke-miterlimit="10" stroke-width="1"/>
                  </g>
                </g>
              </g>
              <g id="Grupo_6231" data-name="Grupo 6231" transform="translate(10.693 23.053)">
                <g id="Grupo_6230" data-name="Grupo 6230" transform="translate(0 0)">
                  <g id="Grupo_6229" data-name="Grupo 6229" clip-path="url(#clip-path-6)">
                    <path id="Caminho_2081" data-name="Caminho 2081" d="M4.471,2006.675c-4.91-123.195,95.9-231.828,205.857-254.969,104.839-22.062,212.5,14.285,315.33,43.234,100.4,28.261,210.958,44.182,296.291-11.086,108.906-70.8,144.191-233.9,257.023-312.615,91.564-63.877,203.094-59.676,297.481-24.388,55.164,20.623,106.073,59.961,159.45,92.011,211.571,127.032,232.073,397.1,411.714,438.991,191.876,44.57,301.3-54.183,342.7-128.593,51.878-93.248,126.383-329.955-52.356-503.287-74.918-72.652-150.145-152.294-208.237-246.1-84.573-135.447-86.55-338.019,15.469-453.4,71.341-80.687,183.742-116.7,236.795-217.278,37.178-69.949,37.41-157.189,14.279-230.581-23.6-74.873-68.63-138.543-122.562-191.781" transform="translate(-2.876 -6.393)" fill="none" stroke="#959595" stroke-miterlimit="10" stroke-width="1"/>
                  </g>
                </g>
              </g>
              <g id="Grupo_6234" data-name="Grupo 6234" transform="translate(15.445 34.03)">
                <g id="Grupo_6233" data-name="Grupo 6233" transform="translate(0 0)">
                  <g id="Grupo_6232" data-name="Grupo 6232" clip-path="url(#clip-path-7)">
                    <path id="Caminho_2082" data-name="Caminho 2082" d="M4.965,2004.228c-.916-126.535,101.127-240.34,214.186-266.055C324.532,1714.2,434,1751.02,536.861,1782.515c99.2,30.375,205.281,50.225,290.341,1.109,108.465-63.015,150.221-218.455,262.973-295.986,93.339-64.183,202.337-66.121,298.671-36.583,57.334,17.58,112.051,55.108,167.779,87.576,206.545,120.334,230.206,379.953,405.764,421.254,186.138,43.532,294.995-49.871,337.938-123.051,53.193-90.647,123.688-317.911-44.027-488.876-71.62-73.006-142.546-155.276-199.907-248.318-81.588-132.336-86.054-325.885,9.519-440.1,67.642-80.838,175.428-120.392,228.465-219.5,37.635-70.329,40.7-155.659,21.419-229.472-19.91-76.216-61.4-144-113.043-200.65" transform="translate(-4.552 -9.38)" fill="none" stroke="#9b9b9b" stroke-miterlimit="10" stroke-width="1"/>
                  </g>
                </g>
              </g>
              <g id="Grupo_6237" data-name="Grupo 6237" transform="translate(20.197 45.007)">
                <g id="Grupo_6236" data-name="Grupo 6236" transform="translate(0 0)">
                  <g id="Grupo_6235" data-name="Grupo 6235" clip-path="url(#clip-path-8)">
                    <path id="Caminho_2083" data-name="Caminho 2083" d="M6.565,2001.672c3.077-129.879,103.975-248.808,220.136-277.141,105.924-25.831,217.212,10.274,320.089,44.343,97.995,32.455,201.984,56.273,286.772,13.3,108.02-55.219,155.069-200.774,267.733-277.141,95.123-64.477,202.857-73.777,301.051-49.885,59.556,14.49,116.815,49.168,174.919,82.034,201.362,113.905,229.535,363.917,401,404.625,180.4,42.5,287.478-44.449,331.988-116.4,54.471-88.053,122.222-308.29-34.508-476.682-68.341-73.427-136.3-155.91-192.768-248.318-78.841-129.033-84.383-314.942,4.76-427.905,63.952-81.04,167.274-123.979,220.136-221.712,38.206-70.638,44.033-155.3,28.558-229.472-16.2-77.617-54.164-147.244-103.523-207.3" transform="translate(-6.145 -12.26)" fill="none" stroke="#a0a0a0" stroke-miterlimit="10" stroke-width="1"/>
                  </g>
                </g>
              </g>
              <g id="Grupo_6240" data-name="Grupo 6240" transform="translate(24.949 55.984)">
                <g id="Grupo_6239" data-name="Grupo 6239" transform="translate(0 0)">
                  <g id="Grupo_6238" data-name="Grupo 6238" transform="translate(0 0)" clip-path="url(#clip-path-9)">
                    <path id="Caminho_2084" data-name="Caminho 2084" d="M8.17,1999.225C15.238,1866,116.186,1743.088,235.446,1712.107c106.472-27.658,218.378,7.667,321.279,44.343,96.79,34.5,198.755,62.508,283.2,25.5,107.665-47.188,158.737-184.181,271.3-259.4,96.912-64.761,203.431-81.543,303.43-63.188,61.812,11.348,122.748,43.248,183.248,76.491,196.044,107.721,227.668,346.773,395.055,386.888,174.666,41.462,281.132-39.035,327.229-109.748,55.722-85.477,119.621-296.661-26.178-462.271-65.079-73.92-130.062-157.645-185.628-249.426-76.11-125.716-82.736-304.087,0-415.711,60.261-81.3,159.128-127.56,211.806-223.93,38.776-70.936,47.415-154.977,35.7-229.472-12.435-79.07-45.742-151.591-92.814-215.061" transform="translate(-7.742 -15.247)" fill="none" stroke="#a6a6a6" stroke-miterlimit="10" stroke-width="1"/>
                  </g>
                </g>
              </g>
              <g id="Grupo_6243" data-name="Grupo 6243" transform="translate(28.514 68.059)">
                <g id="Grupo_6242" data-name="Grupo 6242" transform="translate(0 0)">
                  <g id="Grupo_6241" data-name="Grupo 6241" clip-path="url(#clip-path-10)">
                    <path id="Caminho_2085" data-name="Caminho 2085" d="M9.775,1997.89C20.837,1861.323,120.648,1732.242,243,1698.578c107.027-29.446,220.736,5.035,323.659,44.342,95.588,36.511,194.265,68.587,278.442,37.691,107.22-39.355,164.794-166.47,277.252-240.558,98.708-65.032,204.052-89.415,305.81-76.491,64.093,8.144,128.662,38.465,191.578,72.057,190.607,101.766,224.611,329.625,387.915,369.151,168.928,40.424,275.952-34.739,323.659-104.2,56.942-82.911,117.094-285.272-17.849-447.859-61.831-74.5-123.83-159.377-178.489-250.535-73.392-122.4-82.312-294.441-5.95-404.625,56.568-81.626,150.992-130.029,203.477-225.038,39.355-71.237,50.846-154.7,42.837-229.472-8.628-80.564-37.319-155.939-82.1-222.821" transform="translate(-8.152 -19.335)" fill="none" stroke="#ababab" stroke-miterlimit="10" stroke-width="1"/>
                  </g>
                </g>
              </g>
              <g id="Grupo_6246" data-name="Grupo 6246" transform="translate(33.266 79.037)">
                <g id="Grupo_6245" data-name="Grupo 6245" transform="translate(0 0)">
                  <g id="Grupo_6244" data-name="Grupo 6244" transform="translate(0 0)" clip-path="url(#clip-path-11)">
                    <path id="Caminho_2086" data-name="Caminho 2086" d="M11.38,1995.443c15.055-139.912,113.73-272.908,239.175-309.289,107.585-31.2,224.294,2.366,327.229,44.342,94.4,38.492,189.772,74.665,273.682,49.885,106.769-31.526,169.673-149.847,282.012-222.821,100.514-65.292,203.511-97.4,307-89.794,66.392,4.876,134.555,32.606,199.907,66.514,185.062,96.02,223.937,313.59,383.155,352.523,163.19,39.389,268.366-30.454,317.71-98.662,58.128-80.358,114.659-274.122-9.52-433.448-58.585-75.164-116.411-161.106-170.159-251.644-70.679-119.066-81.925-283.785-11.9-392.431,52.862-82.02,142.862-134.711,195.147-228.364,39.934-71.535,55.522-152.228,51.167-227.255-4.769-82.089-30.086-161.4-72.585-231.69" transform="translate(-9.749 -22.323)" fill="none" stroke="#b1b1b1" stroke-miterlimit="10" stroke-width="1"/>
                  </g>
                </g>
              </g>
              <g id="Grupo_6249" data-name="Grupo 6249" transform="translate(38.018 90.014)">
                <g id="Grupo_6248" data-name="Grupo 6248" transform="translate(0 0)">
                  <g id="Grupo_6247" data-name="Grupo 6247" clip-path="url(#clip-path-12)">
                    <path id="Caminho_2087" data-name="Caminho 2087" d="M12.983,1992.994C32.032,1849.738,130.772,1711.752,259.3,1672.62c108.149-32.927,225.471-.327,328.419,44.342,93.2,40.445,186.462,81.841,270.113,63.188,106.313-23.707,173.366-133.206,285.582-205.084,102.322-65.539,205.36-105.471,310.57-103.1,68.7,1.549,139.233,27.888,207.047,62.079,179.426,90.463,222.07,296.445,377.206,334.786,157.453,38.354,261.951-25.074,312.95-92.011,59.29-77.826,113.537-264.342,0-420.145-55.333-75.931-111.384-162.824-164.209-252.752-67.985-115.721-79.218-273.239-15.469-380.237,49.138-82.483,134.743-138.275,186.818-230.581,40.525-71.827,57.877-152,57.116-227.255-.845-83.63-22.853-165.745-63.066-239.449" transform="translate(-11.345 -25.309)" fill="none" stroke="#b7b7b7" stroke-miterlimit="10" stroke-width="1"/>
                  </g>
                </g>
              </g>
              <g id="Grupo_6252" data-name="Grupo 6252" transform="translate(42.77 102.09)">
                <g id="Grupo_6251" data-name="Grupo 6251" transform="translate(0 0)">
                  <g id="Grupo_6250" data-name="Grupo 6250" transform="translate(0 0)" clip-path="url(#clip-path-13)">
                    <path id="Caminho_2088" data-name="Caminho 2088" d="M14.588,1990.438c23.043-146.6,120.665-289.545,252.264-331.46,108.722-34.626,227.848-1.946,330.8,45.451C689.675,1746.8,779.614,1791.223,863,1778.7c105.856-15.895,179.45-115.447,291.531-186.238,104.14-65.776,204.834-113.637,311.76-116.4,71.01-1.833,145.083,22.109,215.376,56.537,173.71,85.08,220.2,279.3,371.256,317.049,151.715,37.316,255.512-19.7,308.19-85.359,60.421-75.307,111.366-253.724,8.33-405.734-52.059-76.8-103.977-164.542-155.88-253.861-65.3-112.374-78.952-262.792-21.419-368.043,45.384-83.02,126.628-141.839,178.489-232.8,41.117-72.121,61.479-151.773,64.256-227.255a512.207,512.207,0,0,0-52.357-246.1" transform="translate(-12.942 -29.286)" fill="none" stroke="#bcbcbc" stroke-miterlimit="10" stroke-width="1"/>
                  </g>
                </g>
              </g>
              <g id="Grupo_6255" data-name="Grupo 6255" transform="translate(47.523 114.164)">
                <g id="Grupo_6254" data-name="Grupo 6254" transform="translate(0 0)">
                  <g id="Grupo_6253" data-name="Grupo 6253" transform="translate(0 0)" clip-path="url(#clip-path-14)">
                    <path id="Caminho_2089" data-name="Caminho 2089" d="M16.193,1989.1c27.034-149.944,124.736-297.818,259.4-342.546,109.3-36.3,230.234-5.809,333.179,44.343,90.853,44.262,177.458,93.96,260.593,87.576,105.391-8.09,184.351-98.782,296.291-168.5,105.964-66,205.491-121.882,314.14-129.7,73.312-5.276,149.719,16.377,222.516,50.994,167.922,79.858,218.339,263.262,365.306,300.42,145.977,36.278,250.244-15.463,304.62-79.817,61.53-72.817,109.372-243.376,16.659-391.322-48.746-77.785-98.965-167.359-149.93-256.078-62.627-109.013-77.582-251.346-26.178-354.74,41.58-83.634,118.526-145.4,170.159-235.015,41.718-72.409,66.324-150.435,72.585-226.147A523.284,523.284,0,0,0,2412.7,33.6" transform="translate(-14.54 -33.371)" fill="none" stroke="#c2c2c2" stroke-miterlimit="10" stroke-width="1"/>
                  </g>
                </g>
              </g>
              <g id="Grupo_6258" data-name="Grupo 6258" transform="translate(52.275 125.142)">
                <g id="Grupo_6257" data-name="Grupo 6257" transform="translate(0 0)">
                  <g id="Grupo_6256" data-name="Grupo 6256" clip-path="url(#clip-path-15)">
                    <path id="Caminho_2090" data-name="Caminho 2090" d="M17.8,1986.655c31.027-153.285,127.624-306.064,265.353-353.631,109.88-37.954,232.632-7.49,335.558,45.451,89.688,46.129,174.143,98.9,257.023,98.662,104.924-.3,188.071-80.992,299.861-149.656,107.8-66.207,206.133-130.2,316.52-143,75.611-8.768,156.715,11.806,232.035,46.56,162.081,74.783,216.473,246.117,359.357,282.683,140.24,35.244,242.575-11.246,298.671-74.274,62.612-70.35,108.774-233.309,26.178-376.911-45.375-78.888-92.767-169.06-142.791-257.187-59.967-105.641-76.306-242.217-30.938-343.654,37.715-84.323,110.427-147.84,161.83-236.124,42.322-72.693,68.834-150.195,78.535-226.147,11.27-88.273,1.222-178.794-32.128-262.729" transform="translate(-16.137 -36.359)" fill="none" stroke="#c7c7c7" stroke-miterlimit="10" stroke-width="1"/>
                  </g>
                </g>
              </g>
              <g id="Grupo_6261" data-name="Grupo 6261" transform="translate(57.027 136.119)">
                <g id="Grupo_6260" data-name="Grupo 6260" transform="translate(0 0)">
                  <g id="Grupo_6259" data-name="Grupo 6259" transform="translate(0 0)" clip-path="url(#clip-path-16)">
                    <path id="Caminho_2091" data-name="Caminho 2091" d="M19.4,1984.209c35.021-156.629,130.527-314.277,271.3-364.717,110.472-39.581,235.043-10.3,337.938,45.451,88.536,47.975,169.637,106.044,252.264,111.965,104.459,7.483,194.173-64.3,305.81-131.919,109.632-66.406,206.751-138.586,318.9-156.307,77.888-12.307,161.308,6.191,239.175,41.017,156.183,69.852,214.541,230.4,353.407,266.055,134.438,34.517,236.072-5.941,293.911-67.622,63.672-67.906,107.225-225.717,34.508-364.717-41.914-80.112-85.391-169.647-134.461-257.186-57.319-102.26-76.331-232.075-36.888-331.46,33.771-85.083,102.339-151.384,153.5-238.341,42.932-72.968,72.584-149.941,85.675-226.147,15.426-89.791,9.646-183.141-21.419-270.489" transform="translate(-17.734 -39.349)" fill="none" stroke="#cdcdcd" stroke-miterlimit="10" stroke-width="1"/>
                  </g>
                </g>
              </g>
              <g id="Grupo_6264" data-name="Grupo 6264" transform="translate(61.779 147.096)">
                <g id="Grupo_6263" data-name="Grupo 6263" transform="translate(0 0)">
                  <g id="Grupo_6262" data-name="Grupo 6262" clip-path="url(#clip-path-17)">
                    <path id="Caminho_2092" data-name="Caminho 2092" d="M21.007,1981.762c39.014-159.973,134.626-321.356,278.442-374.694,111.073-41.195,237.469-13.146,340.318,45.451,87.4,49.8,165.132,112.078,247.5,124.159,104,15.255,199.1-47.594,310.57-114.182s206.154-147.023,320.089-169.61c80.15-15.891,167.063.648,247.5,35.474,150.241,65.049,212.674,213.26,347.458,248.318,128.7,33.479,229.552-.66,289.151-60.971,64.715-65.488,107.138-216.157,44.027-350.306-38.325-81.462-80.409-171.334-128.512-258.3-54.692-98.867-75.295-222.016-41.647-319.266,29.725-85.912,94.255-154.923,145.171-240.558,43.548-73.242,77.561-148.555,94-225.038A547.963,547.963,0,0,0,2502,42.887" transform="translate(-19.332 -42.337)" fill="none" stroke="#d2d2d2" stroke-miterlimit="10" stroke-width="1"/>
                  </g>
                </g>
              </g>
              <g id="Grupo_6267" data-name="Grupo 6267" transform="translate(66.532 159.172)">
                <g id="Grupo_6266" data-name="Grupo 6266" transform="translate(0 0)">
                  <g id="Grupo_6265" data-name="Grupo 6265" clip-path="url(#clip-path-18)">
                    <path id="Caminho_2093" data-name="Caminho 2093" d="M22.61,1980.317C65.618,1817,160.155,1649.69,307,1593.429c111.677-42.788,239.91-14.909,342.7,46.56,86.271,51.594,161.82,116.992,243.934,135.245,103.533,23.015,202.831-30.875,314.14-96.445,113.326-66.755,207.909-154.4,323.659-181.8,82.39-19.509,171.6-3.7,254.644,31.04,144.264,60.359,212,196.108,342.7,230.581,122.963,32.43,223.015,3.488,284.392-55.428,65.735-63.1,104.977-206.806,51.167-335.894-34.57-82.931-73.057-173.012-120.182-259.4-52.074-95.465-75.586-212.018-47.6-307.072,25.556-86.793,87.37-158.459,138.031-242.775,44.173-73.512,80.19-148.25,99.954-225.038,23.873-92.741,24.111-191.839-2.38-286.009" transform="translate(-20.927 -46.315)" fill="none" stroke="#d8d8d8" stroke-miterlimit="10" stroke-width="1"/>
                  </g>
                </g>
              </g>
              <g id="Grupo_6270" data-name="Grupo 6270" transform="translate(71.284 170.149)">
                <g id="Grupo_6269" data-name="Grupo 6269" transform="translate(0 0)">
                  <g id="Grupo_6268" data-name="Grupo 6268" clip-path="url(#clip-path-19)">
                    <path id="Caminho_2094" data-name="Caminho 2094" d="M23.215,1977.868c47-166.661,142.854-337.651,292.721-396.865,112.29-44.364,241.177-18.916,343.888,45.451C744.983,1679.827,817.148,1750.571,899,1775c103.083,30.768,208.952-14.146,320.089-78.708,115.18-66.914,207.254-162.913,324.849-195.107,84.613-23.166,177.309-9.068,262.973,25.5,138.263,55.788,210.133,180.059,336.748,213.953,117.228,31.379,216.462,8.711,279.632-48.777,66.743-60.739,105.53-198.732,60.686-322.592-30.6-84.511-66.912-174.675-113.043-260.512-49.476-92.052-74.839-202.054-52.357-294.878,21.243-87.711,78.107-161.992,128.511-244.992,44.8-73.776,84.032-147.918,107.093-225.038,28.155-94.166,32.533-196.19,8.329-293.769" transform="translate(-22.715 -49.301)" fill="none" stroke="#dedede" stroke-miterlimit="10" stroke-width="1"/>
                  </g>
                </g>
              </g>
              <g id="Grupo_6273" data-name="Grupo 6273" transform="translate(76.036 181.126)">
                <g id="Grupo_6272" data-name="Grupo 6272" transform="translate(0 0)">
                  <g id="Grupo_6271" data-name="Grupo 6271" transform="translate(0 0)" clip-path="url(#clip-path-20)">
                    <path id="Caminho_2095" data-name="Caminho 2095" d="M24.82,1975.421c50.993-170.005,145.8-345.763,298.671-407.951,112.909-45.927,244.848-20.734,347.458,46.56,84.064,55.13,152.834,129.015,234.415,159.633,102.632,38.512,213.886,3.707,324.849-59.862,117.044-67.051,207.758-172.572,327.229-209.518,86.81-26.845,182.982-13.211,271.3,21.063,132.237,51.32,207.079,164,329.609,197.324,111.493,30.323,209.894,12.794,274.872-43.234,67.737-58.409,105.25-189.652,69.015-308.18-26.344-86.176-60.783-176.332-105.9-261.621-46.889-88.629-74.246-193.209-57.116-283.792,16.766-88.647,70.045-164.41,120.182-246.1,45.438-74.033,89.088-146.443,115.423-223.93,32.474-95.551,39.77-201.649,17.849-302.638" transform="translate(-24.312 -52.288)" fill="none" stroke="#e3e3e3" stroke-miterlimit="10" stroke-width="1"/>
                  </g>
                </g>
              </g>
              <g id="Grupo_6276" data-name="Grupo 6276" transform="translate(80.789 192.103)">
                <g id="Grupo_6275" data-name="Grupo 6275" transform="translate(0 0)">
                  <g id="Grupo_6274" data-name="Grupo 6274" transform="translate(0 0)" clip-path="url(#clip-path-21)">
                    <path id="Caminho_2096" data-name="Caminho 2096" d="M26.425,1972.974c54.986-173.349,148.749-353.854,304.62-419.037,113.537-47.479,247.347-23.684,349.838,46.56,82.979,56.874,149.6,135.962,230.845,172.936,102.27,46.04,217.637,20.46,328.419-42.125,118.91-67.177,208.231-181.15,329.609-222.821,88.986-30.553,188.623-17.231,279.632,16.628,126.2,46.951,206.469,145.466,324.849,178.479,105.813,29.025,202.125,17.955,268.923-36.583,68.724-56.11,106.534-180.59,78.535-293.769-21.746-87.893-54.673-177.975-98.764-262.729-44.32-85.2-75-183.229-63.066-271.6,12.1-89.568,63.175-169.038,113.043-249.427,46.079-74.287,91.78-144.937,121.372-222.821,36.814-96.894,48.193-206,28.558-310.4" transform="translate(-25.909 -55.276)" fill="none" stroke="#e9e9e9" stroke-miterlimit="10" stroke-width="1"/>
                  </g>
                </g>
              </g>
              <g id="Grupo_6279" data-name="Grupo 6279" transform="translate(84.353 204.179)">
                <g id="Grupo_6278" data-name="Grupo 6278" transform="translate(0 0)">
                  <g id="Grupo_6277" data-name="Grupo 6277" clip-path="url(#clip-path-22)">
                    <path id="Caminho_2097" data-name="Caminho 2097" d="M28.029,1971.637c58.98-176.69,152.9-361.921,311.76-430.122,114.169-49.017,248.674-26.658,351.027,46.56,81.912,58.6,145.111,142.006,226.085,185.13,101.825,53.828,223.771,37.224,334.369-24.388,120.783-67.287,208.677-189.745,331.989-236.124,91.141-34.277,193.043-22.2,286.772,11.086,120.161,42.675,204.6,129.43,318.9,161.85,100.075,27.99,196.728,21.973,265.353-31.04,69.7-53.842,105.824-171.452,85.675-279.358a985.85,985.85,0,0,0-90.434-264.946c-41.773-81.756-75.915-172.074-69.016-258.3,7.237-90.442,55.124-172.553,104.713-251.644,46.732-74.533,96.863-144.508,129.7-222.821,41.175-98.2,54.236-210.344,36.887-318.157" transform="translate(-26.318 -59.363)" fill="none" stroke="#eee" stroke-miterlimit="10" stroke-width="1"/>
                  </g>
                </g>
              </g>
              <g id="Grupo_6282" data-name="Grupo 6282" transform="translate(89.105 216.254)">
                <g id="Grupo_6281" data-name="Grupo 6281" transform="translate(0 0)">
                  <g id="Grupo_6280" data-name="Grupo 6280" transform="translate(0 0)" clip-path="url(#clip-path-23)">
                    <path id="Caminho_2098" data-name="Caminho 2098" d="M29.634,1969.084c62.974-180.034,155.874-369.96,317.71-441.208,114.809-50.542,251.22-29.653,353.407,46.56,80.864,60.311,141.811,148.05,222.516,197.324,101.385,61.616,228.825,55.351,339.128-5.543,122.781-67.115,207.906-198.36,333.179-249.427,93.281-38.026,198.617-27,295.1,5.543,114.125,38.492,202.738,113.394,312.95,145.222,94.338,26.955,190.126,27.065,260.593-24.388,70.673-51.6,107.856-163.21,95.194-266.055-11.237-91.254-42.525-182.332-84.485-266.055-39.242-78.3-74.586-161.922-72.585-246.1,2.17-91.227,46.013-175.959,95.194-253.861,47.508-74.674,100.763-142.937,136.841-221.712,45.552-99.464,62.659-214.694,47.6-325.917" transform="translate(-27.916 -63.34)" fill="none" stroke="#f4f4f4" stroke-miterlimit="10" stroke-width="1"/>
                  </g>
                </g>
              </g>
              <g id="Grupo_6285" data-name="Grupo 6285" transform="translate(93.857 227.231)">
                <g id="Grupo_6284" data-name="Grupo 6284" transform="translate(0 0)">
                  <g id="Grupo_6283" data-name="Grupo 6283" transform="translate(0 0)" clip-path="url(#clip-path-24)">
                    <path id="Caminho_2099" data-name="Caminho 2099" d="M31.237,1966.637c66.964-183.378,160.142-377.726,324.849-452.293,115.524-51.875,253.787-31.566,355.787,47.668,79.831,62.01,137.324,154.1,217.756,209.518,100.94,69.408,232.532,72.022,342.7,12.194,124.608-67.321,209.483-206.986,336.748-262.729,95.4-41.785,204.155-30.479,303.431,1.109,108.106,34.394,200.872,96.25,307,127.485,88.6,25.921,182.331,31.015,254.644-18.846,71.644-49.4,109.04-153.519,103.523-251.644-5.211-92.724-35.308-183.934-76.155-267.164-36.73-74.842-75.764-151.63-78.535-233.907-3.1-91.891,37.913-179.509,86.865-256.078C2557.965,547,2614.517,479.5,2653.828,400.238c49.942-100.7,71.081-219.042,58.306-333.677" transform="translate(-29.511 -66.328)" fill="none" stroke="#f9f9f9" stroke-miterlimit="10" stroke-width="1"/>
                  </g>
                </g>
              </g>
              <g id="Grupo_6288" data-name="Grupo 6288" transform="translate(98.61 238.209)">
                <g id="Grupo_6287" data-name="Grupo 6287" transform="translate(0 0)">
                  <g id="Grupo_6286" data-name="Grupo 6286" clip-path="url(#clip-path-25)">
                    <path id="Caminho_2100" data-name="Caminho 2100" d="M32.842,1964.188c70.958-186.723,163.045-384.88,330.8-462.271,116.112-53.568,256.375-35.711,358.167,46.56,78.813,63.7,132.84,160.141,213,221.713,100.5,77.2,238.623,89.8,348.648,31.04C1409.889,1733.7,1492.1,1585.61,1621.39,1525.2c97.489-45.557,209.65-34.812,311.76-4.434s199,79.1,301.051,109.748c82.862,24.882,175.717,36.035,249.884-12.194,72.613-47.222,111.691-144.442,113.043-238.341s-29.312-184.407-69.016-267.164c-34.242-71.37-77.04-142.264-84.485-222.821-8.539-92.388,31-181.954,79.725-257.186s108.578-141.933,151.12-221.712C2728.812,309.2,2752.787,187.7,2742.3,69.654" transform="translate(-31.109 -69.315)" fill="none" stroke="#fff" stroke-miterlimit="10" stroke-width="1"/>
                  </g>
                </g>
              </g>
            </g>
          </g>
        </g>
      </g>
    </g>
  </g>
</svg>
