<svg xmlns="http://www.w3.org/2000/svg" xmlns:xlink="http://www.w3.org/1999/xlink" width="229" height="321" viewBox="0 0 229 321">
  <defs>
    <clipPath id="clip-path">
      <rect id="Ret칙ngulo_2184" data-name="Ret칙ngulo 2184" width="229" height="321" transform="translate(1691 14171)" fill="#fff"/>
    </clipPath>
  </defs>
  <g id="Grupo_de_m치scara_86" data-name="Grupo de m치scara 86" transform="translate(-1691 -14171)" clip-path="url(#clip-path)">
    <g id="Grupo_4959" data-name="Grupo 4959" transform="translate(1699.286 14769.269) rotate(-90)">
      <circle id="Elipse_12" data-name="Elipse 12" cx="9.207" cy="9.207" r="9.207" transform="translate(427.655 0.048)" fill="#fff"/>
      <circle id="Elipse_18" data-name="Elipse 18" cx="9.207" cy="9.207" r="9.207" transform="translate(427.655 60.198)" fill="#fff"/>
      <circle id="Elipse_29" data-name="Elipse 29" cx="9.207" cy="9.207" r="9.207" transform="translate(427.655 116.665)" fill="#fff"/>
      <circle id="Elipse_37" data-name="Elipse 37" cx="9.207" cy="9.207" r="9.207" transform="translate(427.655 176.816)" fill="#fff"/>
      <circle id="Elipse_54" data-name="Elipse 54" cx="9.207" cy="9.207" r="9.207" transform="translate(427.655 233.283)" fill="#fff"/>
      <circle id="Elipse_11" data-name="Elipse 11" cx="9.207" cy="9.207" r="9.207" transform="translate(500.081 0.048)" fill="#fff"/>
      <circle id="Elipse_17" data-name="Elipse 17" cx="9.207" cy="9.207" r="9.207" transform="translate(500.081 60.198)" fill="#fff"/>
      <circle id="Elipse_30" data-name="Elipse 30" cx="9.207" cy="9.207" r="9.207" transform="translate(500.081 116.665)" fill="#fff"/>
      <circle id="Elipse_39" data-name="Elipse 39" cx="9.207" cy="9.207" r="9.207" transform="translate(500.081 176.816)" fill="#fff"/>
      <circle id="Elipse_53" data-name="Elipse 53" cx="9.207" cy="9.207" r="9.207" transform="translate(500.081 233.283)" fill="#fff"/>
      <circle id="Elipse_5" data-name="Elipse 5" cx="9.82" cy="9.82" r="9.82" transform="translate(284.031 0.048)" fill="#fff"/>
      <circle id="Elipse_20" data-name="Elipse 20" cx="9.82" cy="9.82" r="9.82" transform="translate(284.031 60.198)" fill="#fff"/>
      <circle id="Elipse_32" data-name="Elipse 32" cx="9.82" cy="9.82" r="9.82" transform="translate(284.031 116.665)" fill="#fff"/>
      <circle id="Elipse_40" data-name="Elipse 40" cx="9.82" cy="9.82" r="9.82" transform="translate(284.031 176.816)" fill="#fff"/>
      <circle id="Elipse_56" data-name="Elipse 56" cx="9.82" cy="9.82" r="9.82" transform="translate(284.031 233.283)" fill="#fff"/>
      <circle id="Elipse_10" data-name="Elipse 10" cx="9.82" cy="9.82" r="9.82" transform="translate(572.506 0.048)" fill="#fff"/>
      <circle id="Elipse_16" data-name="Elipse 16" cx="9.82" cy="9.82" r="9.82" transform="translate(572.506 60.198)" fill="#fff"/>
      <circle id="Elipse_27" data-name="Elipse 27" cx="9.82" cy="9.82" r="9.82" transform="translate(572.506 116.665)" fill="#fff"/>
      <circle id="Elipse_42" data-name="Elipse 42" cx="9.82" cy="9.82" r="9.82" transform="translate(572.506 176.816)" fill="#fff"/>
      <circle id="Elipse_52" data-name="Elipse 52" cx="9.82" cy="9.82" r="9.82" transform="translate(572.506 233.283)" fill="#fff"/>
      <circle id="Elipse_4" data-name="Elipse 4" cx="9.207" cy="9.207" r="9.207" transform="translate(355.229 0.048)" fill="#fff"/>
      <circle id="Elipse_19" data-name="Elipse 19" cx="9.207" cy="9.207" r="9.207" transform="translate(355.229 60.198)" fill="#fff"/>
      <circle id="Elipse_31" data-name="Elipse 31" cx="9.207" cy="9.207" r="9.207" transform="translate(355.229 116.665)" fill="#fff"/>
      <circle id="Elipse_43" data-name="Elipse 43" cx="9.207" cy="9.207" r="9.207" transform="translate(355.229 176.816)" fill="#fff"/>
      <circle id="Elipse_55" data-name="Elipse 55" cx="9.207" cy="9.207" r="9.207" transform="translate(355.229 233.283)" fill="#fff"/>
    </g>
  </g>
</svg>
