<svg xmlns="http://www.w3.org/2000/svg" xmlns:xlink="http://www.w3.org/1999/xlink" width="230" height="319" viewBox="0 0 230 319">
  <defs>
    <clipPath id="clip-path">
      <rect id="Ret칙ngulo_2083" data-name="Ret칙ngulo 2083" width="230" height="319" transform="translate(1690 7626)" fill="#fff"/>
    </clipPath>
  </defs>
  <g id="Grupo_de_m치scara_63" data-name="Grupo de m치scara 63" transform="translate(-1690 -7626)" clip-path="url(#clip-path)">
    <g id="Grupo_5015" data-name="Grupo 5015">
      <circle id="Elipse_12" data-name="Elipse 12" cx="9.207" cy="9.207" r="9.207" transform="translate(1699.334 7793.662) rotate(-90)" fill="#fff"/>
      <circle id="Elipse_18" data-name="Elipse 18" cx="9.207" cy="9.207" r="9.207" transform="translate(1759.484 7793.662) rotate(-90)" fill="#fff"/>
      <circle id="Elipse_29" data-name="Elipse 29" cx="9.207" cy="9.207" r="9.207" transform="translate(1815.952 7793.662) rotate(-90)" fill="#fff"/>
      <circle id="Elipse_37" data-name="Elipse 37" cx="9.207" cy="9.207" r="9.207" transform="translate(1876.102 7793.66) rotate(-90)" fill="#fff"/>
      <circle id="Elipse_11" data-name="Elipse 11" cx="9.207" cy="9.207" r="9.207" transform="translate(1699.334 7721.234) rotate(-90)" fill="#fff"/>
      <circle id="Elipse_17" data-name="Elipse 17" cx="9.207" cy="9.207" r="9.207" transform="translate(1759.484 7721.234) rotate(-90)" fill="#fff"/>
      <circle id="Elipse_30" data-name="Elipse 30" cx="9.207" cy="9.207" r="9.207" transform="translate(1815.952 7721.234) rotate(-90)" fill="#fff"/>
      <circle id="Elipse_39" data-name="Elipse 39" cx="9.207" cy="9.207" r="9.207" transform="translate(1876.102 7721.234) rotate(-90)" fill="#fff"/>
      <circle id="Elipse_5" data-name="Elipse 5" cx="9.82" cy="9.82" r="9.82" transform="translate(1699.334 7937.285) rotate(-90)" fill="#fff"/>
      <circle id="Elipse_20" data-name="Elipse 20" cx="9.82" cy="9.82" r="9.82" transform="translate(1759.484 7937.285) rotate(-90)" fill="#fff"/>
      <circle id="Elipse_32" data-name="Elipse 32" cx="9.82" cy="9.82" r="9.82" transform="translate(1815.952 7937.285) rotate(-90)" fill="#fff"/>
      <circle id="Elipse_40" data-name="Elipse 40" cx="9.82" cy="9.82" r="9.82" transform="translate(1876.102 7937.285) rotate(-90)" fill="#fff"/>
      <circle id="Elipse_10" data-name="Elipse 10" cx="9.82" cy="9.82" r="9.82" transform="translate(1699.334 7648.811) rotate(-90)" fill="#fff"/>
      <circle id="Elipse_16" data-name="Elipse 16" cx="9.82" cy="9.82" r="9.82" transform="translate(1759.484 7648.811) rotate(-90)" fill="#fff"/>
      <circle id="Elipse_27" data-name="Elipse 27" cx="9.82" cy="9.82" r="9.82" transform="translate(1815.952 7648.811) rotate(-90)" fill="#fff"/>
      <circle id="Elipse_42" data-name="Elipse 42" cx="9.82" cy="9.82" r="9.82" transform="translate(1876.102 7648.811) rotate(-90)" fill="#fff"/>
      <circle id="Elipse_4" data-name="Elipse 4" cx="9.207" cy="9.207" r="9.207" transform="translate(1699.334 7866.086) rotate(-90)" fill="#fff"/>
      <circle id="Elipse_19" data-name="Elipse 19" cx="9.207" cy="9.207" r="9.207" transform="translate(1759.484 7866.086) rotate(-90)" fill="#fff"/>
      <circle id="Elipse_31" data-name="Elipse 31" cx="9.207" cy="9.207" r="9.207" transform="translate(1815.952 7866.086) rotate(-90)" fill="#fff"/>
      <circle id="Elipse_43" data-name="Elipse 43" cx="9.207" cy="9.207" r="9.207" transform="translate(1876.102 7866.086) rotate(-90)" fill="#fff"/>
      <circle id="Elipse_54" data-name="Elipse 54" cx="9.207" cy="9.207" r="9.207" transform="translate(1932.57 7793.66) rotate(-90)" fill="#fff"/>
      <circle id="Elipse_53" data-name="Elipse 53" cx="9.207" cy="9.207" r="9.207" transform="translate(1932.57 7721.234) rotate(-90)" fill="#fff"/>
      <circle id="Elipse_56" data-name="Elipse 56" cx="9.82" cy="9.82" r="9.82" transform="translate(1932.57 7937.285) rotate(-90)" fill="#fff"/>
      <circle id="Elipse_52" data-name="Elipse 52" cx="9.82" cy="9.82" r="9.82" transform="translate(1932.57 7648.811) rotate(-90)" fill="#fff"/>
      <circle id="Elipse_55" data-name="Elipse 55" cx="9.207" cy="9.207" r="9.207" transform="translate(1932.57 7866.086) rotate(-90)" fill="#fff"/>
    </g>
  </g>
</svg>
