<svg xmlns="http://www.w3.org/2000/svg" width="196.409" height="522.938" viewBox="0 0 196.409 522.938">
  <g id="Grupo_4959" data-name="Grupo 4959" transform="translate(-0.048 806.969) rotate(-90)">
    <circle id="Elipse_12" data-name="Elipse 12" cx="9.207" cy="9.207" r="9.207" transform="translate(427.655 0.048)" fill="#fff"/>
    <circle id="Elipse_18" data-name="Elipse 18" cx="9.207" cy="9.207" r="9.207" transform="translate(427.655 60.198)" fill="#fff"/>
    <circle id="Elipse_29" data-name="Elipse 29" cx="9.207" cy="9.207" r="9.207" transform="translate(427.655 116.665)" fill="#fff"/>
    <circle id="Elipse_37" data-name="Elipse 37" cx="9.207" cy="9.207" r="9.207" transform="translate(427.655 176.816)" fill="#fff"/>
    <circle id="Elipse_9" data-name="Elipse 9" cx="9.207" cy="9.207" r="9.207" transform="translate(646.16 0.048)" fill="#fff"/>
    <circle id="Elipse_15" data-name="Elipse 15" cx="9.207" cy="9.207" r="9.207" transform="translate(646.16 60.198)" fill="#fff"/>
    <circle id="Elipse_25" data-name="Elipse 25" cx="9.207" cy="9.207" r="9.207" transform="translate(646.16 116.665)" fill="#fff"/>
    <circle id="Elipse_38" data-name="Elipse 38" cx="9.207" cy="9.207" r="9.207" transform="translate(646.16 176.816)" fill="#fff"/>
    <circle id="Elipse_11" data-name="Elipse 11" cx="9.207" cy="9.207" r="9.207" transform="translate(500.081 0.048)" fill="#fff"/>
    <circle id="Elipse_17" data-name="Elipse 17" cx="9.207" cy="9.207" r="9.207" transform="translate(500.081 60.198)" fill="#fff"/>
    <circle id="Elipse_30" data-name="Elipse 30" cx="9.207" cy="9.207" r="9.207" transform="translate(500.081 116.665)" fill="#fff"/>
    <circle id="Elipse_39" data-name="Elipse 39" cx="9.207" cy="9.207" r="9.207" transform="translate(500.081 176.816)" fill="#fff"/>
    <circle id="Elipse_5" data-name="Elipse 5" cx="9.82" cy="9.82" r="9.82" transform="translate(284.031 0.048)" fill="#fff"/>
    <circle id="Elipse_20" data-name="Elipse 20" cx="9.82" cy="9.82" r="9.82" transform="translate(284.031 60.198)" fill="#fff"/>
    <circle id="Elipse_32" data-name="Elipse 32" cx="9.82" cy="9.82" r="9.82" transform="translate(284.031 116.665)" fill="#fff"/>
    <circle id="Elipse_40" data-name="Elipse 40" cx="9.82" cy="9.82" r="9.82" transform="translate(284.031 176.816)" fill="#fff"/>
    <circle id="Elipse_7" data-name="Elipse 7" cx="9.207" cy="9.207" r="9.207" transform="translate(718.586 0.048)" fill="#fff"/>
    <circle id="Elipse_14" data-name="Elipse 14" cx="9.207" cy="9.207" r="9.207" transform="translate(718.586 60.198)" fill="#fff"/>
    <circle id="Elipse_26" data-name="Elipse 26" cx="9.207" cy="9.207" r="9.207" transform="translate(718.586 116.665)" fill="#fff"/>
    <circle id="Elipse_41" data-name="Elipse 41" cx="9.207" cy="9.207" r="9.207" transform="translate(718.586 176.816)" fill="#fff"/>
    <circle id="Elipse_10" data-name="Elipse 10" cx="9.82" cy="9.82" r="9.82" transform="translate(572.506 0.048)" fill="#fff"/>
    <circle id="Elipse_16" data-name="Elipse 16" cx="9.82" cy="9.82" r="9.82" transform="translate(572.506 60.198)" fill="#fff"/>
    <circle id="Elipse_27" data-name="Elipse 27" cx="9.82" cy="9.82" r="9.82" transform="translate(572.506 116.665)" fill="#fff"/>
    <circle id="Elipse_42" data-name="Elipse 42" cx="9.82" cy="9.82" r="9.82" transform="translate(572.506 176.816)" fill="#fff"/>
    <circle id="Elipse_4" data-name="Elipse 4" cx="9.207" cy="9.207" r="9.207" transform="translate(355.229 0.048)" fill="#fff"/>
    <circle id="Elipse_19" data-name="Elipse 19" cx="9.207" cy="9.207" r="9.207" transform="translate(355.229 60.198)" fill="#fff"/>
    <circle id="Elipse_31" data-name="Elipse 31" cx="9.207" cy="9.207" r="9.207" transform="translate(355.229 116.665)" fill="#fff"/>
    <circle id="Elipse_43" data-name="Elipse 43" cx="9.207" cy="9.207" r="9.207" transform="translate(355.229 176.816)" fill="#fff"/>
    <circle id="Elipse_8" data-name="Elipse 8" cx="9.82" cy="9.82" r="9.82" transform="translate(787.329 0.048)" fill="#fff"/>
    <circle id="Elipse_13" data-name="Elipse 13" cx="9.82" cy="9.82" r="9.82" transform="translate(787.329 60.198)" fill="#fff"/>
    <circle id="Elipse_28" data-name="Elipse 28" cx="9.82" cy="9.82" r="9.82" transform="translate(787.329 116.665)" fill="#fff"/>
    <circle id="Elipse_44" data-name="Elipse 44" cx="9.82" cy="9.82" r="9.82" transform="translate(787.329 176.816)" fill="#fff"/>
  </g>
</svg>
