<svg xmlns="http://www.w3.org/2000/svg" xmlns:xlink="http://www.w3.org/1999/xlink" width="355" height="312" viewBox="0 0 355 312">
  <defs>
    <clipPath id="clip-path">
      <rect id="Ret칙ngulo_2700" data-name="Ret칙ngulo 2700" width="355" height="312" fill="#fff" stroke="#707070" stroke-width="1"/>
    </clipPath>
  </defs>
  <g id="Grupo_de_m치scara_149" data-name="Grupo de m치scara 149" clip-path="url(#clip-path)">
    <g id="Grupo_6382" data-name="Grupo 6382" transform="translate(43.756 879.357) rotate(-90)">
      <circle id="Elipse_2610" data-name="Elipse 2610" cx="9.636" cy="9.636" r="9.636" transform="translate(434.357 0.048)" fill="#3d3d3d"/>
      <circle id="Elipse_2611" data-name="Elipse 2611" cx="9.636" cy="9.636" r="9.636" transform="translate(434.357 63.005)" fill="#3d3d3d"/>
      <circle id="Elipse_2612" data-name="Elipse 2612" cx="9.636" cy="9.636" r="9.636" transform="translate(434.357 122.107)" fill="#3d3d3d"/>
      <circle id="Elipse_2613" data-name="Elipse 2613" cx="9.636" cy="9.636" r="9.636" transform="translate(434.357 185.064)" fill="#3d3d3d"/>
      <circle id="Elipse_2614" data-name="Elipse 2614" cx="9.636" cy="9.636" r="9.636" transform="translate(434.357 244.166)" fill="#3d3d3d"/>
      <circle id="Elipse_2615" data-name="Elipse 2615" cx="9.636" cy="9.636" r="9.636" transform="translate(663.057 0.048)" fill="#3d3d3d"/>
      <circle id="Elipse_2616" data-name="Elipse 2616" cx="9.636" cy="9.636" r="9.636" transform="translate(663.057 63.005)" fill="#3d3d3d"/>
      <circle id="Elipse_2617" data-name="Elipse 2617" cx="9.636" cy="9.636" r="9.636" transform="translate(663.057 122.107)" fill="#3d3d3d"/>
      <circle id="Elipse_2618" data-name="Elipse 2618" cx="9.636" cy="9.636" r="9.636" transform="translate(663.057 185.064)" fill="#3d3d3d"/>
      <circle id="Elipse_2619" data-name="Elipse 2619" cx="9.636" cy="9.636" r="9.636" transform="translate(663.057 244.166)" fill="#3d3d3d"/>
      <circle id="Elipse_2620" data-name="Elipse 2620" cx="9.636" cy="9.636" r="9.636" transform="translate(510.162 0.048)" fill="#3d3d3d"/>
      <circle id="Elipse_2621" data-name="Elipse 2621" cx="9.636" cy="9.636" r="9.636" transform="translate(510.162 63.005)" fill="#3d3d3d"/>
      <circle id="Elipse_2622" data-name="Elipse 2622" cx="9.636" cy="9.636" r="9.636" transform="translate(510.162 122.107)" fill="#3d3d3d"/>
      <circle id="Elipse_2623" data-name="Elipse 2623" cx="9.636" cy="9.636" r="9.636" transform="translate(510.162 185.064)" fill="#3d3d3d"/>
      <circle id="Elipse_2624" data-name="Elipse 2624" cx="9.636" cy="9.636" r="9.636" transform="translate(510.162 244.166)" fill="#3d3d3d"/>
      <circle id="Elipse_2625" data-name="Elipse 2625" cx="9.636" cy="9.636" r="9.636" transform="translate(738.862 0.048)" fill="#3d3d3d"/>
      <circle id="Elipse_2626" data-name="Elipse 2626" cx="9.636" cy="9.636" r="9.636" transform="translate(738.862 63.005)" fill="#3d3d3d"/>
      <circle id="Elipse_2627" data-name="Elipse 2627" cx="9.636" cy="9.636" r="9.636" transform="translate(738.862 122.107)" fill="#3d3d3d"/>
      <circle id="Elipse_2628" data-name="Elipse 2628" cx="9.636" cy="9.636" r="9.636" transform="translate(738.862 185.064)" fill="#3d3d3d"/>
      <circle id="Elipse_2629" data-name="Elipse 2629" cx="9.636" cy="9.636" r="9.636" transform="translate(738.862 244.166)" fill="#3d3d3d"/>
      <circle id="Elipse_2630" data-name="Elipse 2630" cx="10.279" cy="10.279" r="10.279" transform="translate(585.967 0.048)" fill="#3d3d3d"/>
      <circle id="Elipse_2631" data-name="Elipse 2631" cx="10.279" cy="10.279" r="10.279" transform="translate(585.967 63.005)" fill="#3d3d3d"/>
      <circle id="Elipse_2632" data-name="Elipse 2632" cx="10.279" cy="10.279" r="10.279" transform="translate(585.967 122.107)" fill="#3d3d3d"/>
      <circle id="Elipse_2633" data-name="Elipse 2633" cx="10.279" cy="10.279" r="10.279" transform="translate(585.967 185.064)" fill="#3d3d3d"/>
      <circle id="Elipse_2634" data-name="Elipse 2634" cx="10.279" cy="10.279" r="10.279" transform="translate(585.967 244.166)" fill="#3d3d3d"/>
      <circle id="Elipse_2635" data-name="Elipse 2635" cx="10.279" cy="10.279" r="10.279" transform="translate(810.813 0.048)" fill="#3d3d3d"/>
      <circle id="Elipse_2636" data-name="Elipse 2636" cx="10.279" cy="10.279" r="10.279" transform="translate(810.813 63.005)" fill="#3d3d3d"/>
      <circle id="Elipse_2637" data-name="Elipse 2637" cx="10.279" cy="10.279" r="10.279" transform="translate(810.813 122.107)" fill="#3d3d3d"/>
      <circle id="Elipse_2638" data-name="Elipse 2638" cx="10.279" cy="10.279" r="10.279" transform="translate(810.813 185.064)" fill="#3d3d3d"/>
      <circle id="Elipse_2639" data-name="Elipse 2639" cx="10.279" cy="10.279" r="10.279" transform="translate(810.813 244.166)" fill="#3d3d3d"/>
    </g>
  </g>
</svg>
