<svg xmlns="http://www.w3.org/2000/svg" width="264.676" height="397.014" viewBox="0 0 264.676 397.014">
  <g id="Grupo_6128" data-name="Grupo 6128" transform="translate(-0.048 831.37) rotate(-90)">
    <circle id="Elipse_12" data-name="Elipse 12" cx="9.636" cy="9.636" r="9.636" transform="translate(434.357 0.048)" fill="#3d3d3d"/>
    <circle id="Elipse_18" data-name="Elipse 18" cx="9.636" cy="9.636" r="9.636" transform="translate(434.357 63.005)" fill="#3d3d3d"/>
    <circle id="Elipse_29" data-name="Elipse 29" cx="9.636" cy="9.636" r="9.636" transform="translate(434.357 122.107)" fill="#3d3d3d"/>
    <circle id="Elipse_37" data-name="Elipse 37" cx="9.636" cy="9.636" r="9.636" transform="translate(434.357 185.064)" fill="#3d3d3d"/>
    <circle id="Elipse_54" data-name="Elipse 54" cx="9.636" cy="9.636" r="9.636" transform="translate(434.357 244.166)" fill="#3d3d3d"/>
    <circle id="Elipse_9" data-name="Elipse 9" cx="9.636" cy="9.636" r="9.636" transform="translate(663.057 0.048)" fill="#3d3d3d"/>
    <circle id="Elipse_15" data-name="Elipse 15" cx="9.636" cy="9.636" r="9.636" transform="translate(663.057 63.005)" fill="#3d3d3d"/>
    <circle id="Elipse_25" data-name="Elipse 25" cx="9.636" cy="9.636" r="9.636" transform="translate(663.057 122.107)" fill="#3d3d3d"/>
    <circle id="Elipse_38" data-name="Elipse 38" cx="9.636" cy="9.636" r="9.636" transform="translate(663.057 185.064)" fill="#3d3d3d"/>
    <circle id="Elipse_51" data-name="Elipse 51" cx="9.636" cy="9.636" r="9.636" transform="translate(663.057 244.166)" fill="#3d3d3d"/>
    <circle id="Elipse_11" data-name="Elipse 11" cx="9.636" cy="9.636" r="9.636" transform="translate(510.162 0.048)" fill="#3d3d3d"/>
    <circle id="Elipse_17" data-name="Elipse 17" cx="9.636" cy="9.636" r="9.636" transform="translate(510.162 63.005)" fill="#3d3d3d"/>
    <circle id="Elipse_30" data-name="Elipse 30" cx="9.636" cy="9.636" r="9.636" transform="translate(510.162 122.107)" fill="#3d3d3d"/>
    <circle id="Elipse_39" data-name="Elipse 39" cx="9.636" cy="9.636" r="9.636" transform="translate(510.162 185.064)" fill="#3d3d3d"/>
    <circle id="Elipse_53" data-name="Elipse 53" cx="9.636" cy="9.636" r="9.636" transform="translate(510.162 244.166)" fill="#3d3d3d"/>
    <circle id="Elipse_7" data-name="Elipse 7" cx="9.636" cy="9.636" r="9.636" transform="translate(738.862 0.048)" fill="#3d3d3d"/>
    <circle id="Elipse_14" data-name="Elipse 14" cx="9.636" cy="9.636" r="9.636" transform="translate(738.862 63.005)" fill="#3d3d3d"/>
    <circle id="Elipse_26" data-name="Elipse 26" cx="9.636" cy="9.636" r="9.636" transform="translate(738.862 122.107)" fill="#3d3d3d"/>
    <circle id="Elipse_41" data-name="Elipse 41" cx="9.636" cy="9.636" r="9.636" transform="translate(738.862 185.064)" fill="#3d3d3d"/>
    <circle id="Elipse_49" data-name="Elipse 49" cx="9.636" cy="9.636" r="9.636" transform="translate(738.862 244.166)" fill="#3d3d3d"/>
    <circle id="Elipse_10" data-name="Elipse 10" cx="10.279" cy="10.279" r="10.279" transform="translate(585.967 0.048)" fill="#3d3d3d"/>
    <circle id="Elipse_16" data-name="Elipse 16" cx="10.279" cy="10.279" r="10.279" transform="translate(585.967 63.005)" fill="#3d3d3d"/>
    <circle id="Elipse_27" data-name="Elipse 27" cx="10.279" cy="10.279" r="10.279" transform="translate(585.967 122.107)" fill="#3d3d3d"/>
    <circle id="Elipse_42" data-name="Elipse 42" cx="10.279" cy="10.279" r="10.279" transform="translate(585.967 185.064)" fill="#3d3d3d"/>
    <circle id="Elipse_52" data-name="Elipse 52" cx="10.279" cy="10.279" r="10.279" transform="translate(585.967 244.166)" fill="#3d3d3d"/>
    <circle id="Elipse_8" data-name="Elipse 8" cx="10.279" cy="10.279" r="10.279" transform="translate(810.813 0.048)" fill="#3d3d3d"/>
    <circle id="Elipse_13" data-name="Elipse 13" cx="10.279" cy="10.279" r="10.279" transform="translate(810.813 63.005)" fill="#3d3d3d"/>
    <circle id="Elipse_28" data-name="Elipse 28" cx="10.279" cy="10.279" r="10.279" transform="translate(810.813 122.107)" fill="#3d3d3d"/>
    <circle id="Elipse_44" data-name="Elipse 44" cx="10.279" cy="10.279" r="10.279" transform="translate(810.813 185.064)" fill="#3d3d3d"/>
    <circle id="Elipse_50" data-name="Elipse 50" cx="10.279" cy="10.279" r="10.279" transform="translate(810.813 244.166)" fill="#3d3d3d"/>
  </g>
</svg>
