<svg id="BOTÃO_CONFIRMAR" data-name="BOTÃO CONFIRMAR" xmlns="http://www.w3.org/2000/svg" width="244" height="43" viewBox="0 0 244 43">
  <g id="Grupo_41" data-name="Grupo 41">
    <g id="Retângulo_31" data-name="Retângulo 31" fill="#ffc803" stroke="#fff" stroke-width="3">
      <rect width="227" height="43" rx="21.5" stroke="none"/>
      <rect x="1.5" y="1.5" width="224" height="40" rx="20" fill="none"/>
    </g>
    <text id="Missão_cumprida" data-name="Missão cumprida" transform="translate(20 7)" font-size="20" font-family="BrandonGrotesque-Black, Brandon Grotesque" font-weight="800"><tspan x="2.82" y="21">MISSÃO CUMPRIDA</tspan></text>
  </g>
  <g id="right-arrow" transform="translate(209.726 13.199)">
    <g id="Grupo_22" data-name="Grupo 22">
      <path id="Caminho_67" data-name="Caminho 67" d="M33.881,139.353h0l-7-6.962a1.339,1.339,0,0,0-1.889,1.9l4.7,4.674H1.339a1.339,1.339,0,1,0,0,2.678H29.692L25,146.314a1.339,1.339,0,0,0,1.889,1.9l7-6.962h0A1.34,1.34,0,0,0,33.881,139.353Z" transform="translate(0 -132)"/>
    </g>
  </g>
</svg>
