<svg xmlns="http://www.w3.org/2000/svg" width="117.11" height="123.824" viewBox="0 0 117.11 123.824">
  <path id="strategic_9321572" d="M97.467,76.048c2.731-4.668,5.311-9.077,5.311-17.571a32.806,32.806,0,1,0-65.612,0c0,8.494,2.58,12.9,5.311,17.571,2.968,5.072,6.33,10.82,7.1,23.8v4.941a7.015,7.015,0,0,0,5.007,6.712v3.3a7.015,7.015,0,0,0,5.134,6.748v3.265a7.011,7.011,0,0,0,7,7h6.5a7.011,7.011,0,0,0,7-7v-3.265a7.014,7.014,0,0,0,5.134-6.748v-3.3a7.015,7.015,0,0,0,5.006-6.712V99.856c.771-12.987,4.134-18.736,7.1-23.808ZM41.161,58.477a28.812,28.812,0,0,1,57.623,0c0,7.411-2.1,11-4.764,15.554-3.051,5.215-6.491,11.094-7.514,23.758H77.29V67.86h5.162A9.156,9.156,0,1,0,73.3,58.7v5.162H66.649V58.7a9.156,9.156,0,1,0-9.156,9.156h5.162V97.789H53.439c-1.023-12.664-4.463-18.544-7.514-23.758-2.662-4.549-4.764-8.142-4.764-15.554Zm21.494,5.389H57.493A5.162,5.162,0,1,1,62.655,58.7ZM73.3,97.789H66.649V67.86H73.3ZM77.29,63.866V58.7a5.162,5.162,0,1,1,5.162,5.162Zm-4.069,63.963h-6.5a3.013,3.013,0,0,1-3.009-3.009v-3.01H76.23v3.01A3.013,3.013,0,0,1,73.221,127.829Zm5.134-10.013H61.589a3.013,3.013,0,0,1-3.009-3.009V111.8H81.364v3.009A3.013,3.013,0,0,1,78.355,117.815ZM83.362,107.8H56.583a3.013,3.013,0,0,1-3.009-3.009v-3.01h32.8v3.01a3.012,3.012,0,0,1-3.009,3.009ZM67.975,17.254V10a2,2,0,0,1,3.994,0v7.257a2,2,0,0,1-3.994,0Zm-26.6.94a2,2,0,0,1,3.459-2l3.629,6.285a2,2,0,1,1-3.459,2ZM31.455,41.489a2,2,0,0,1-2.728.731l-6.285-3.628a2,2,0,0,1,2-3.46l6.285,3.629A2,2,0,0,1,31.455,41.489ZM91.479,22.482,95.108,16.2a2,2,0,1,1,3.459,2l-3.629,6.285a2,2,0,1,1-3.459-2Zm17.01,19.007a2,2,0,0,1,.731-2.728l6.285-3.629a2,2,0,1,1,2,3.459l-6.285,3.629a2,2,0,0,1-2.728-.731Zm25.14,38.1-.035-.015-11.128-4.908V69.075a3.349,3.349,0,0,0-3.345-3.345,10.776,10.776,0,0,0-10.71,9.709c-6.838,2.954-12.563,12.816-12.563,22.115v16.366H93.374a2,2,0,0,0-2,2v9.175a2,2,0,0,0,2,2H133.39a2,2,0,0,0,2-2v-9.175a2,2,0,0,0-2-2h-2.474v-5.443a2.937,2.937,0,0,0-.908-2.134l-7.243-6.968V96.513a9.855,9.855,0,0,0,6.17-2.94h6.657a2.965,2.965,0,0,0,2.961-2.961V87.3a8.422,8.422,0,0,0-4.923-7.715Zm-2.236,43.5H95.372v-5.18h36.022Zm3.166-33.515h-6.634a2,2,0,0,0-1.72.983c-.848,1.438-3.35,2.129-5.376,2.064a2,2,0,0,0-2.059,2v5.6a2,2,0,0,0,.613,1.439l7.539,7.252v5H99.843V97.553c0-8.94,5.841-17.286,11.062-18.775a2,2,0,0,0,1.449-1.921V76.49a6.776,6.776,0,0,1,6.118-6.735v6.214a2,2,0,0,0,1.191,1.827l12.3,5.425a4.411,4.411,0,0,1,2.6,4.083v2.274Z" transform="translate(-21.443 -8)" fill="#ffc800"/>
</svg>
