<svg xmlns="http://www.w3.org/2000/svg" width="117.667" height="71.791" viewBox="0 0 117.667 71.791">
  <g id="laptop_118006" transform="translate(-11 -106.5)">
    <g id="Grupo_5705" data-name="Grupo 5705" transform="translate(11 106.5)">
      <path id="Caminho_1956" data-name="Caminho 1956" d="M126.193,384.6H13.5a2.5,2.5,0,1,0,0,5H126.169a2.5,2.5,0,0,0,.024-5Z" transform="translate(-11 -317.804)" fill="#ffc800"/>
      <path id="Caminho_1957" data-name="Caminho 1957" d="M64.2,169.237H155.8a2.5,2.5,0,0,0,2.5-2.5V109a2.5,2.5,0,0,0-2.5-2.5H64.2a2.5,2.5,0,0,0-2.5,2.5v57.741A2.5,2.5,0,0,0,64.2,169.237Zm89.109-5H69.41L88.793,139.91l10.9,10.424a2.465,2.465,0,0,0,3.6-.168l18.783-21.5,9.583,11.985a2.536,2.536,0,0,0,3.963-.072l17.678-23.947ZM66.72,111.52h84.137L133.54,134.962l-9.415-11.769a2.515,2.515,0,0,0-3.843-.072l-19.047,21.785-11-10.5a2.547,2.547,0,0,0-3.7.24L66.72,159.581Z" transform="translate(-49.523 -106.5)" fill="#ffc800"/>
    </g>
  </g>
</svg>
