<svg xmlns="http://www.w3.org/2000/svg" width="96.509" height="97.234" viewBox="0 0 96.509 97.234">
  <g id="workflow_1574572" transform="translate(-0.168)">
    <path id="Caminho_1958" data-name="Caminho 1958" d="M535.8,320.146h-2.849V317.3H535.8Zm-4.748,0h-2.849V317.3h2.849Zm0,0" transform="translate(-447.815 -269.09)" fill="#ffc800"/>
    <path id="Caminho_1959" data-name="Caminho 1959" d="M473.78,93.774l-1.99-1.99L469.776,93.8l5.49,5.491,5.49-5.491-2.014-2.014L476.629,93.9V71.543h-15.4v2.849h12.55Zm0,0" transform="translate(-391.014 -60.674)" fill="#ffc800"/>
    <path id="Caminho_1960" data-name="Caminho 1960" d="M403.985,538.3l-2.014-2.014-5.49,5.49,5.49,5.49,2.014-2.015-2.052-2.051h4.494v-2.849h-4.494Zm0,0" transform="translate(-336.101 -454.805)" fill="#ffc800"/>
    <path id="Caminho_1961" data-name="Caminho 1961" d="M199.412,62.48l11.672-11.672H214l-2.052,2.051,2.015,2.015,5.49-5.49-5.49-5.49-2.015,2.015L214,47.958h-2.911L199.412,36.286V24.5A12.314,12.314,0,0,0,210.2,13.718h5.788V10.869H210.2A12.292,12.292,0,1,0,196.563,24.5V36.286L184.892,47.958h-2.911l2.051-2.051-2.014-2.015-5.491,5.49,5.491,5.49,2.014-2.015-2.051-2.051h2.911L196.563,62.48V76.7H187.72V97.234h20.535V89.312h-2.849v5.074H190.569V79.548h14.838v5.966h2.849V76.7h-8.844ZM188.543,12.294a9.445,9.445,0,1,1,9.444,9.445A9.455,9.455,0,0,1,188.543,12.294Zm9.444,26.6L208.48,49.383,197.987,59.875,187.5,49.383Zm0,0" transform="translate(-149.565)" fill="#ffc800"/>
    <path id="Caminho_1962" data-name="Caminho 1962" d="M492.31,265.289H474.7l-3.682,3.682v10.79l3.682,3.684h7.38v27.081H473.44v2.849H484.93V283.445h7.379l3.683-3.683v-10.79Zm.834,13.293-2.015,2.014H475.882l-2.014-2.014v-8.43l2.014-2.014h15.247l2.015,2.014Zm0,0" transform="translate(-399.316 -224.984)" fill="#ffc800"/>
    <path id="Caminho_1963" data-name="Caminho 1963" d="M90.712,495.73l2.051,2.052H75.829V486.09H72.98v14.54H92.763l-2.051,2.051,2.014,2.015,5.49-5.49-5.49-5.49Zm0,0" transform="translate(-61.75 -412.239)" fill="#ffc800"/>
    <path id="Caminho_1964" data-name="Caminho 1964" d="M11.23,295.03h2.849V283.438h7.379l3.684-3.683v-10.79l-3.684-3.684H3.851L.168,268.965v10.79l3.683,3.683H11.23ZM3.017,278.575v-8.43l2.014-2.014H20.278l2.014,2.014v8.43l-2.014,2.014H5.03Zm0,0" transform="translate(0 -224.977)" fill="#ffc800"/>
  </g>
</svg>
