<svg xmlns="http://www.w3.org/2000/svg" width="109.032" height="116.568" viewBox="0 0 109.032 116.568">
  <g id="intelligence_10227360_1_" data-name="intelligence_10227360 (1)" transform="translate(-2.5 -0.484)">
    <path id="Caminho_1965" data-name="Caminho 1965" d="M26.872,19.036a4.936,4.936,0,0,0-9.872,0" transform="translate(10.766 10.03)" fill="none" stroke="#ffc800" stroke-linecap="round" stroke-linejoin="round" stroke-miterlimit="10" stroke-width="3"/>
    <path id="Caminho_1966" data-name="Caminho 1966" d="M15.664,35.6a6.764,6.764,0,0,0,0,13.528" transform="translate(4.058 27.835)" fill="none" stroke="#ffc800" stroke-linecap="round" stroke-linejoin="round" stroke-miterlimit="10" stroke-width="3"/>
    <path id="Caminho_1967" data-name="Caminho 1967" d="M31.654,28.651l-.548-.548a5.518,5.518,0,0,0-6.4-.548,5.661,5.661,0,0,0-2.194,7.678" transform="translate(14.759 20.525)" fill="none" stroke="#ffc800" stroke-linecap="round" stroke-linejoin="round" stroke-miterlimit="10" stroke-width="3"/>
    <path id="Caminho_1968" data-name="Caminho 1968" d="M25.909,39.587A5.572,5.572,0,0,0,17.5,32.275" transform="translate(11.18 23.482)" fill="none" stroke="#ffc800" stroke-linecap="round" stroke-linejoin="round" stroke-miterlimit="10" stroke-width="3"/>
    <path id="Caminho_1969" data-name="Caminho 1969" d="M31.654,42.751l-.548-.548a5.518,5.518,0,0,0-6.4-.548,5.661,5.661,0,0,0-2.194,7.678" transform="translate(14.759 32.201)" fill="none" stroke="#ffc800" stroke-linecap="round" stroke-linejoin="round" stroke-miterlimit="10" stroke-width="3"/>
    <path id="Caminho_1970" data-name="Caminho 1970" d="M25.909,53.587A5.572,5.572,0,0,0,17.5,46.275" transform="translate(11.18 35.076)" fill="none" stroke="#ffc800" stroke-linecap="round" stroke-linejoin="round" stroke-miterlimit="10" stroke-width="3"/>
    <path id="Caminho_1971" data-name="Caminho 1971" d="M20.328,56.9a3.442,3.442,0,0,0,6.764,1.28" transform="translate(13.47 45.475)" fill="none" stroke="#ffc800" stroke-linecap="round" stroke-linejoin="round" stroke-miterlimit="10" stroke-width="3"/>
    <path id="Caminho_1972" data-name="Caminho 1972" d="M38.664,56.9A3.442,3.442,0,0,1,31.9,58.18" transform="translate(23.105 45.475)" fill="none" stroke="#ffc800" stroke-linecap="round" stroke-linejoin="round" stroke-miterlimit="10" stroke-width="3"/>
    <path id="Caminho_1973" data-name="Caminho 1973" d="M19.944,35.5a15.857,15.857,0,0,1-5.85-5.119,14.2,14.2,0,0,1-.914-14.26A14.466,14.466,0,0,1,32.558,9.36a14.663,14.663,0,0,1,8.227,13.894V98.573a11.078,11.078,0,1,1-18.464-7.313" transform="translate(6.359 4.898)" fill="none" stroke="#ffc800" stroke-linecap="round" stroke-linejoin="round" stroke-miterlimit="10" stroke-width="3"/>
    <path id="Caminho_1974" data-name="Caminho 1974" d="M27.7,23.162V22.43A14.943,14.943,0,0,1,35.927,9.268a13.951,13.951,0,0,1,13.163.366" transform="translate(19.627 4.808)" fill="none" stroke="#ffc800" stroke-linecap="round" stroke-linejoin="round" stroke-miterlimit="10" stroke-width="3"/>
    <path id="Caminho_1975" data-name="Caminho 1975" d="M10.338,40.127a13.752,13.752,0,0,1-.914-12.8,13.051,13.051,0,0,1,7.5-7.13" transform="translate(3.534 15.082)" fill="none" stroke="#ffc800" stroke-linecap="round" stroke-linejoin="round" stroke-miterlimit="10" stroke-width="3"/>
    <path id="Caminho_1976" data-name="Caminho 1976" d="M22.647,29.9a18.647,18.647,0,1,0,0,37.294" transform="translate(0 23.115)" fill="none" stroke="#ffc800" stroke-linecap="round" stroke-linejoin="round" stroke-miterlimit="10" stroke-width="3"/>
    <path id="Caminho_1977" data-name="Caminho 1977" d="M19.6,66.036a11.753,11.753,0,0,1-9.506-7.678A10.916,10.916,0,0,1,10.82,49.4" transform="translate(4.514 39.264)" fill="none" stroke="#ffc800" stroke-linecap="round" stroke-linejoin="round" stroke-miterlimit="10" stroke-width="3"/>
    <path id="Caminho_1978" data-name="Caminho 1978" d="M28.1,21.051l.548-.548a5.518,5.518,0,0,1,6.4-.548,5.661,5.661,0,0,1,2.194,7.678" transform="translate(19.958 14.231)" fill="none" stroke="#ffc800" stroke-linecap="round" stroke-linejoin="round" stroke-miterlimit="10" stroke-width="3"/>
    <path id="Caminho_1979" data-name="Caminho 1979" d="M33.826,31.987a5.572,5.572,0,1,1,8.409-7.313" transform="translate(23.555 17.189)" fill="none" stroke="#ffc800" stroke-linecap="round" stroke-linejoin="round" stroke-miterlimit="10" stroke-width="3"/>
    <path id="Caminho_1980" data-name="Caminho 1980" d="M42.354,42.951l-.548-.548a5.518,5.518,0,0,0-6.4-.548,5.661,5.661,0,0,0-2.194,7.678" transform="translate(23.62 32.367)" fill="none" stroke="#ffc800" stroke-linecap="round" stroke-linejoin="round" stroke-miterlimit="10" stroke-width="3"/>
    <path id="Caminho_1981" data-name="Caminho 1981" d="M36.609,53.887A5.572,5.572,0,1,0,28.2,46.575" transform="translate(20.041 35.325)" fill="none" stroke="#ffc800" stroke-linecap="round" stroke-linejoin="round" stroke-miterlimit="10" stroke-width="3"/>
    <path id="Caminho_1982" data-name="Caminho 1982" d="M27.8,37.936a5.595,5.595,0,0,1,11.152.914" transform="translate(19.71 25.5)" fill="none" stroke="#ffc800" stroke-linecap="round" stroke-linejoin="round" stroke-miterlimit="10" stroke-width="3"/>
    <path id="Caminho_1983" data-name="Caminho 1983" d="M46.247,53.5A11.129,11.129,0,0,1,31.256,69.953,11.1,11.1,0,0,1,27.6,61.727" transform="translate(19.544 42.659)" fill="none" stroke="#ffc800" stroke-linecap="round" stroke-linejoin="round" stroke-miterlimit="10" stroke-width="3"/>
    <path id="Caminho_1984" data-name="Caminho 1984" d="M58.1,35.9a18.1,18.1,0,0,1,1.645,7.678,18.319,18.319,0,0,1-11.152,17,16.719,16.719,0,0,1-7.5,1.645" transform="translate(30.724 28.084)" fill="none" stroke="#ffc800" stroke-linecap="round" stroke-linejoin="round" stroke-miterlimit="10" stroke-width="3"/>
    <path id="Caminho_1985" data-name="Caminho 1985" d="M40.4,66.036a11.753,11.753,0,0,0,9.506-7.678,10.916,10.916,0,0,0-.731-8.958" transform="translate(30.144 39.264)" fill="none" stroke="#ffc800" stroke-linecap="round" stroke-linejoin="round" stroke-miterlimit="10" stroke-width="3"/>
    <path id="Caminho_1986" data-name="Caminho 1986" d="M81.627,23.765a21.664,21.664,0,1,0-43.327,0A21.061,21.061,0,0,0,44.15,38.39a28.172,28.172,0,0,1,7.678,19.378v.366H67.916a28.172,28.172,0,0,1,7.678-19.378A21.777,21.777,0,0,0,81.627,23.765Z" transform="translate(28.405)" fill="none" stroke="#ffc800" stroke-linecap="round" stroke-linejoin="round" stroke-miterlimit="10" stroke-width="3"/>
    <path id="Caminho_1987" data-name="Caminho 1987" d="M61.419,38.55H47.525a2.925,2.925,0,0,1,0-5.85H61.419a2.925,2.925,0,0,1,0,5.85Z" transform="translate(33.623 25.434)" fill="none" stroke="#ffc800" stroke-linecap="round" stroke-linejoin="round" stroke-miterlimit="10" stroke-width="3"/>
    <path id="Caminho_1988" data-name="Caminho 1988" d="M46.5,18.7,53.081,24V44.294" transform="translate(35.196 13.84)" fill="none" stroke="#ffc800" stroke-linecap="round" stroke-linejoin="round" stroke-miterlimit="10" stroke-width="3"/>
    <path id="Caminho_1989" data-name="Caminho 1989" d="M56.681,18.7,50.1,24" transform="translate(38.177 13.84)" fill="none" stroke="#ffc800" stroke-linecap="round" stroke-linejoin="round" stroke-miterlimit="10" stroke-width="3"/>
  </g>
</svg>
