<svg xmlns="http://www.w3.org/2000/svg" xmlns:xlink="http://www.w3.org/1999/xlink" width="159.712" height="198.133" viewBox="0 0 159.712 198.133">
  <defs>
    <clipPath id="clip-path">
      <rect id="Retângulo_2695" data-name="Retângulo 2695" width="159.712" height="198.133" fill="#fff"/>
    </clipPath>
  </defs>
  <g id="Grupo_6929" data-name="Grupo 6929" transform="translate(0)">
    <g id="Grupo_6376" data-name="Grupo 6376" transform="translate(0)" clip-path="url(#clip-path)">
      <path id="Caminho_2130" data-name="Caminho 2130" d="M159.46,43.246l0-.007q-.079-.258-.181-.509l-.014-.035a5.841,5.841,0,0,0-.5-.949c-.023-.035-.047-.069-.071-.1-.076-.111-.156-.219-.241-.325-.03-.038-.059-.075-.089-.112-.112-.134-.228-.264-.352-.389L118.893,1.7a5.822,5.822,0,0,0-4.12-1.7l-.043,0H17.075A17.093,17.093,0,0,0,0,17.075V181.058a17.092,17.092,0,0,0,17.075,17.075H142.646a17.1,17.1,0,0,0,17.063-17.075V45.114a5.813,5.813,0,0,0-.249-1.868M120.593,19.92,139.8,39.114H120.593Zm22.04,166.556H17.075a5.43,5.43,0,0,1-5.419-5.419V17.073a5.424,5.424,0,0,1,5.419-5.419h91.864V44.943a5.83,5.83,0,0,0,5.828,5.827h33.286V181.058a5.493,5.493,0,0,1-5.419,5.419" fill="#fff"/>
      <path id="Caminho_2131" data-name="Caminho 2131" d="M269,37.378,289.739,58.1a1.126,1.126,0,0,1-.8,1.923H268.2a1.126,1.126,0,0,1-1.126-1.126V38.175a1.126,1.126,0,0,1,1.923-.8" transform="translate(-147.416 -20.448)" fill="#fff"/>
      <path id="Caminho_2132" data-name="Caminho 2132" d="M162.725,162.826H85.591a5.85,5.85,0,0,0,0,11.654h77.133a5.85,5.85,0,0,0,0-11.654" transform="translate(-44.302 -89.875)" fill="#fff"/>
      <path id="Caminho_2133" data-name="Caminho 2133" d="M162.725,244.008H85.591a5.851,5.851,0,0,0,0,11.655h77.133a5.851,5.851,0,0,0,0-11.655" transform="translate(-44.302 -134.685)" fill="#fff"/>
      <path id="Caminho_2134" data-name="Caminho 2134" d="M162.725,325.191H85.591a5.85,5.85,0,0,0,0,11.654h77.133a5.85,5.85,0,0,0,0-11.654" transform="translate(-44.302 -179.495)" fill="#fff"/>
    </g>
  </g>
</svg>
