<svg xmlns="http://www.w3.org/2000/svg" xmlns:xlink="http://www.w3.org/1999/xlink" width="595" height="280" viewBox="0 0 595 280">
  <defs>
    <clipPath id="clip-path">
      <rect id="Ret칙ngulo_2667" data-name="Ret칙ngulo 2667" width="595" height="280" transform="translate(1325 13302)" fill="#fff" stroke="#707070" stroke-width="1"/>
    </clipPath>
  </defs>
  <g id="Grupo_de_m치scara_146" data-name="Grupo de m치scara 146" transform="translate(-1325 -13302)" clip-path="url(#clip-path)">
    <g id="Grupo_4951" data-name="Grupo 4951" transform="translate(1019.376 13971.643)" opacity="0.7">
      <g id="Grupo_15" data-name="Grupo 15" transform="translate(423.624 -610)">
        <circle id="Elipse_1" data-name="Elipse 1" cx="7.355" cy="7.355" r="7.355" transform="translate(0)" fill="#ec0000"/>
        <circle id="Elipse_24" data-name="Elipse 24" cx="7.355" cy="7.355" r="7.355" transform="translate(0 44.131)" fill="#ec0000"/>
        <ellipse id="Elipse_36" data-name="Elipse 36" cx="7.355" cy="6.687" rx="7.355" ry="6.687" transform="translate(0 89.6)" fill="#ec0000"/>
        <circle id="Elipse_48" data-name="Elipse 48" cx="7.355" cy="7.355" r="7.355" transform="translate(0 132.394)" fill="#ec0000"/>
        <circle id="Elipse_60" data-name="Elipse 60" cx="7.355" cy="7.355" r="7.355" transform="translate(0 176.525)" fill="#ec0000"/>
        <circle id="Elipse_12" data-name="Elipse 12" cx="7.355" cy="7.355" r="7.355" transform="translate(328.978)" fill="#ec0000"/>
        <circle id="Elipse_18" data-name="Elipse 18" cx="7.355" cy="7.355" r="7.355" transform="translate(328.978 44.131)" fill="#ec0000"/>
        <ellipse id="Elipse_29" data-name="Elipse 29" cx="7.355" cy="6.687" rx="7.355" ry="6.687" transform="translate(328.978 89.6)" fill="#ec0000"/>
        <circle id="Elipse_37" data-name="Elipse 37" cx="7.355" cy="7.355" r="7.355" transform="translate(328.978 132.394)" fill="#ec0000"/>
        <circle id="Elipse_54" data-name="Elipse 54" cx="7.355" cy="7.355" r="7.355" transform="translate(328.978 176.525)" fill="#ec0000"/>
        <ellipse id="Elipse_6" data-name="Elipse 6" cx="6.687" cy="7.355" rx="6.687" ry="7.355" transform="translate(164.489)" fill="#ec0000"/>
        <ellipse id="Elipse_21" data-name="Elipse 21" cx="6.687" cy="7.355" rx="6.687" ry="7.355" transform="translate(164.489 44.131)" fill="#ec0000"/>
        <circle id="Elipse_33" data-name="Elipse 33" cx="6.687" cy="6.687" r="6.687" transform="translate(164.489 89.6)" fill="#ec0000"/>
        <ellipse id="Elipse_45" data-name="Elipse 45" cx="6.687" cy="7.355" rx="6.687" ry="7.355" transform="translate(164.489 132.394)" fill="#ec0000"/>
        <ellipse id="Elipse_57" data-name="Elipse 57" cx="6.687" cy="7.355" rx="6.687" ry="7.355" transform="translate(164.489 176.525)" fill="#ec0000"/>
        <circle id="Elipse_9" data-name="Elipse 9" cx="7.355" cy="7.355" r="7.355" transform="translate(492.129)" fill="#ec0000"/>
        <circle id="Elipse_15" data-name="Elipse 15" cx="7.355" cy="7.355" r="7.355" transform="translate(492.129 44.131)" fill="#ec0000"/>
        <ellipse id="Elipse_25" data-name="Elipse 25" cx="7.355" cy="6.687" rx="7.355" ry="6.687" transform="translate(492.129 89.6)" fill="#ec0000"/>
        <circle id="Elipse_38" data-name="Elipse 38" cx="7.355" cy="7.355" r="7.355" transform="translate(492.129 132.394)" fill="#ec0000"/>
        <circle id="Elipse_51" data-name="Elipse 51" cx="7.355" cy="7.355" r="7.355" transform="translate(492.129 176.525)" fill="#ec0000"/>
        <circle id="Elipse_2" data-name="Elipse 2" cx="7.355" cy="7.355" r="7.355" transform="translate(54.83)" fill="#ec0000"/>
        <circle id="Elipse_23" data-name="Elipse 23" cx="7.355" cy="7.355" r="7.355" transform="translate(54.83 44.131)" fill="#ec0000"/>
        <ellipse id="Elipse_35" data-name="Elipse 35" cx="7.355" cy="6.687" rx="7.355" ry="6.687" transform="translate(54.83 89.6)" fill="#ec0000"/>
        <circle id="Elipse_47" data-name="Elipse 47" cx="7.355" cy="7.355" r="7.355" transform="translate(54.83 132.394)" fill="#ec0000"/>
        <circle id="Elipse_59" data-name="Elipse 59" cx="7.355" cy="7.355" r="7.355" transform="translate(54.83 176.525)" fill="#ec0000"/>
        <ellipse id="Elipse_11" data-name="Elipse 11" cx="6.687" cy="7.355" rx="6.687" ry="7.355" transform="translate(383.808)" fill="#ec0000"/>
        <ellipse id="Elipse_17" data-name="Elipse 17" cx="6.687" cy="7.355" rx="6.687" ry="7.355" transform="translate(383.808 44.131)" fill="#ec0000"/>
        <circle id="Elipse_30" data-name="Elipse 30" cx="6.687" cy="6.687" r="6.687" transform="translate(383.808 89.6)" fill="#ec0000"/>
        <ellipse id="Elipse_39" data-name="Elipse 39" cx="6.687" cy="7.355" rx="6.687" ry="7.355" transform="translate(383.808 132.394)" fill="#ec0000"/>
        <ellipse id="Elipse_53" data-name="Elipse 53" cx="6.687" cy="7.355" rx="6.687" ry="7.355" transform="translate(383.808 176.525)" fill="#ec0000"/>
        <ellipse id="Elipse_5" data-name="Elipse 5" cx="6.687" cy="7.355" rx="6.687" ry="7.355" transform="translate(219.318)" fill="#ec0000"/>
        <ellipse id="Elipse_20" data-name="Elipse 20" cx="6.687" cy="7.355" rx="6.687" ry="7.355" transform="translate(219.318 44.131)" fill="#ec0000"/>
        <circle id="Elipse_32" data-name="Elipse 32" cx="6.687" cy="6.687" r="6.687" transform="translate(219.318 89.6)" fill="#ec0000"/>
        <ellipse id="Elipse_40" data-name="Elipse 40" cx="6.687" cy="7.355" rx="6.687" ry="7.355" transform="translate(219.318 132.394)" fill="#ec0000"/>
        <ellipse id="Elipse_56" data-name="Elipse 56" cx="6.687" cy="7.355" rx="6.687" ry="7.355" transform="translate(219.318 176.525)" fill="#ec0000"/>
        <circle id="Elipse_7" data-name="Elipse 7" cx="7.355" cy="7.355" r="7.355" transform="translate(546.959)" fill="#ec0000"/>
        <circle id="Elipse_14" data-name="Elipse 14" cx="7.355" cy="7.355" r="7.355" transform="translate(546.959 44.131)" fill="#ec0000"/>
        <ellipse id="Elipse_26" data-name="Elipse 26" cx="7.355" cy="6.687" rx="7.355" ry="6.687" transform="translate(546.959 89.6)" fill="#ec0000"/>
        <circle id="Elipse_41" data-name="Elipse 41" cx="7.355" cy="7.355" r="7.355" transform="translate(546.959 132.394)" fill="#ec0000"/>
        <circle id="Elipse_49" data-name="Elipse 49" cx="7.355" cy="7.355" r="7.355" transform="translate(546.959 176.525)" fill="#ec0000"/>
        <circle id="Elipse_3" data-name="Elipse 3" cx="7.355" cy="7.355" r="7.355" transform="translate(109.659)" fill="#ec0000"/>
        <circle id="Elipse_22" data-name="Elipse 22" cx="7.355" cy="7.355" r="7.355" transform="translate(109.659 44.131)" fill="#ec0000"/>
        <ellipse id="Elipse_34" data-name="Elipse 34" cx="7.355" cy="6.687" rx="7.355" ry="6.687" transform="translate(109.659 89.6)" fill="#ec0000"/>
        <circle id="Elipse_46" data-name="Elipse 46" cx="7.355" cy="7.355" r="7.355" transform="translate(109.659 132.394)" fill="#ec0000"/>
        <circle id="Elipse_58" data-name="Elipse 58" cx="7.355" cy="7.355" r="7.355" transform="translate(109.659 176.525)" fill="#ec0000"/>
        <ellipse id="Elipse_10" data-name="Elipse 10" cx="6.687" cy="7.355" rx="6.687" ry="7.355" transform="translate(438.637)" fill="#ec0000"/>
        <ellipse id="Elipse_16" data-name="Elipse 16" cx="6.687" cy="7.355" rx="6.687" ry="7.355" transform="translate(438.637 44.131)" fill="#ec0000"/>
        <circle id="Elipse_27" data-name="Elipse 27" cx="6.687" cy="6.687" r="6.687" transform="translate(438.637 89.6)" fill="#ec0000"/>
        <ellipse id="Elipse_42" data-name="Elipse 42" cx="6.687" cy="7.355" rx="6.687" ry="7.355" transform="translate(438.637 132.394)" fill="#ec0000"/>
        <ellipse id="Elipse_52" data-name="Elipse 52" cx="6.687" cy="7.355" rx="6.687" ry="7.355" transform="translate(438.637 176.525)" fill="#ec0000"/>
        <circle id="Elipse_4" data-name="Elipse 4" cx="7.355" cy="7.355" r="7.355" transform="translate(274.148)" fill="#ec0000"/>
        <circle id="Elipse_19" data-name="Elipse 19" cx="7.355" cy="7.355" r="7.355" transform="translate(274.148 44.131)" fill="#ec0000"/>
        <ellipse id="Elipse_31" data-name="Elipse 31" cx="7.355" cy="6.687" rx="7.355" ry="6.687" transform="translate(274.148 89.6)" fill="#ec0000"/>
        <circle id="Elipse_43" data-name="Elipse 43" cx="7.355" cy="7.355" r="7.355" transform="translate(274.148 132.394)" fill="#ec0000"/>
        <circle id="Elipse_55" data-name="Elipse 55" cx="7.355" cy="7.355" r="7.355" transform="translate(274.148 176.525)" fill="#ec0000"/>
        <circle id="Elipse_8" data-name="Elipse 8" cx="7.355" cy="7.355" r="7.355" transform="translate(601.789)" fill="#ec0000"/>
        <circle id="Elipse_13" data-name="Elipse 13" cx="7.355" cy="7.355" r="7.355" transform="translate(601.789 44.131)" fill="#ec0000"/>
        <ellipse id="Elipse_28" data-name="Elipse 28" cx="7.355" cy="6.687" rx="7.355" ry="6.687" transform="translate(601.789 89.6)" fill="#ec0000"/>
        <circle id="Elipse_44" data-name="Elipse 44" cx="7.355" cy="7.355" r="7.355" transform="translate(601.789 132.394)" fill="#ec0000"/>
        <circle id="Elipse_50" data-name="Elipse 50" cx="7.355" cy="7.355" r="7.355" transform="translate(601.789 176.525)" fill="#ec0000"/>
      </g>
      <ellipse id="Elipse_1-2" data-name="Elipse 1" cx="6.687" cy="7.355" rx="6.687" ry="7.355" transform="translate(1085.591 -610)" fill="#ec0000"/>
      <ellipse id="Elipse_24-2" data-name="Elipse 24" cx="6.687" cy="7.355" rx="6.687" ry="7.355" transform="translate(1085.591 -565.869)" fill="#ec0000"/>
      <circle id="Elipse_36-2" data-name="Elipse 36" cx="6.687" cy="6.687" r="6.687" transform="translate(1085.591 -520.4)" fill="#ec0000"/>
      <ellipse id="Elipse_48-2" data-name="Elipse 48" cx="6.687" cy="7.355" rx="6.687" ry="7.355" transform="translate(1085.591 -477.606)" fill="#ec0000"/>
      <ellipse id="Elipse_60-2" data-name="Elipse 60" cx="6.687" cy="7.355" rx="6.687" ry="7.355" transform="translate(1085.591 -433.475)" fill="#ec0000"/>
      <circle id="Elipse_2-2" data-name="Elipse 2" cx="7.355" cy="7.355" r="7.355" transform="translate(1139.084 -610)" fill="#ec0000"/>
      <circle id="Elipse_23-2" data-name="Elipse 23" cx="7.355" cy="7.355" r="7.355" transform="translate(1139.084 -565.869)" fill="#ec0000"/>
      <ellipse id="Elipse_35-2" data-name="Elipse 35" cx="7.355" cy="6.687" rx="7.355" ry="6.687" transform="translate(1139.084 -520.4)" fill="#ec0000"/>
      <circle id="Elipse_47-2" data-name="Elipse 47" cx="7.355" cy="7.355" r="7.355" transform="translate(1139.084 -477.606)" fill="#ec0000"/>
      <circle id="Elipse_59-2" data-name="Elipse 59" cx="7.355" cy="7.355" r="7.355" transform="translate(1139.084 -433.475)" fill="#ec0000"/>
      <circle id="Elipse_3-2" data-name="Elipse 3" cx="7.355" cy="7.355" r="7.355" transform="translate(1193.913 -610)" fill="#ec0000"/>
      <circle id="Elipse_22-2" data-name="Elipse 22" cx="7.355" cy="7.355" r="7.355" transform="translate(1193.913 -565.869)" fill="#ec0000"/>
      <ellipse id="Elipse_34-2" data-name="Elipse 34" cx="7.355" cy="6.687" rx="7.355" ry="6.687" transform="translate(1193.913 -520.4)" fill="#ec0000"/>
      <circle id="Elipse_46-2" data-name="Elipse 46" cx="7.355" cy="7.355" r="7.355" transform="translate(1193.913 -477.606)" fill="#ec0000"/>
      <circle id="Elipse_58-2" data-name="Elipse 58" cx="7.355" cy="7.355" r="7.355" transform="translate(1193.913 -433.475)" fill="#ec0000"/>
    </g>
  </g>
</svg>
