<svg id="TOOLS_PRETO" data-name="TOOLS PRETO" xmlns="http://www.w3.org/2000/svg" xmlns:xlink="http://www.w3.org/1999/xlink" width="227.493" height="36.613" viewBox="0 0 227.493 36.613">
  <defs>
    <clipPath id="clip-path">
      <rect id="Retângulo_4" data-name="Retângulo 4" width="227.493" height="36.613" fill="none"/>
    </clipPath>
  </defs>
  <g id="Grupo_1" data-name="Grupo 1" clip-path="url(#clip-path)">
    <path id="Caminho_1" data-name="Caminho 1" d="M157.4,8.825a8.892,8.892,0,0,1,12.649,0V1.589a14.823,14.823,0,0,0-16.866,2.986,15.127,15.127,0,0,0-2.961,17H157.4a9.07,9.07,0,0,1,0-12.753" transform="translate(-112.996 -0.131)"/>
    <path id="Caminho_2" data-name="Caminho 2" d="M202.24,35.824a2.994,2.994,0,0,0-2.866,3.827,9.067,9.067,0,0,1-2.257,8.926,8.892,8.892,0,0,1-12.649,0v7.236a14.822,14.822,0,0,0,16.865-2.985A15.11,15.11,0,0,0,205.1,37.985,2.984,2.984,0,0,0,202.24,35.824Z" transform="translate(-140.064 -27.13)"/>
    <path id="Caminho_3" data-name="Caminho 3" d="M367.916,19.033a9.027,9.027,0,0,1-4.664,7.92,3.012,3.012,0,0,0-.658,4.75,2.962,2.962,0,0,0,3.54.513A15.084,15.084,0,0,0,364.047,4.9l-5.075,5.117a8.981,8.981,0,0,1,8.944,9.018" transform="translate(-272.563 -3.709)"/>
    <path id="Caminho_4" data-name="Caminho 4" d="M308.328,31.7a3.012,3.012,0,0,0-.658-4.75,9.033,9.033,0,0,1,4.28-16.938L306.875,4.9a15.084,15.084,0,0,0-2.087,27.318A2.963,2.963,0,0,0,308.328,31.7Z" transform="translate(-225.541 -3.709)"/>
    <path id="Caminho_5" data-name="Caminho 5" d="M29.855.412V6.376H2.958a2.982,2.982,0,0,1,0-5.964Z" transform="translate(0 -0.312)"/>
    <path id="Caminho_6" data-name="Caminho 6" d="M49.562,44.309V59.154h5.916V38.345a5.94,5.94,0,0,0-5.916,5.964" transform="translate(-37.632 -29.039)"/>
    <path id="Caminho_7" data-name="Caminho 7" d="M578.463,91.988A2.986,2.986,0,0,1,573.99,94.6a9.036,9.036,0,0,1-4.479-7.82h5.968a3.012,3.012,0,0,0,1.474,2.6A3.045,3.045,0,0,1,578.463,91.988Z" transform="translate(-432.423 -65.718)"/>
    <path id="Caminho_8" data-name="Caminho 8" d="M451.968,99.3h11.924a5.94,5.94,0,0,1,5.916,5.964H446.052V99.3Z" transform="translate(-338.682 -75.198)"/>
    <path id="Caminho_9" data-name="Caminho 9" d="M446.052,17.46V2.982a2.958,2.958,0,1,1,5.916,0V17.46a2.958,2.958,0,1,1-5.916,0" transform="translate(-338.682 0)"/>
    <path id="Caminho_10" data-name="Caminho 10" d="M590.214,13.94h-8.729a6.1,6.1,0,0,1-6.071-6.017V2.443a9.038,9.038,0,0,0,3.24,17.514H590.3a3.062,3.062,0,0,1,3.08,2.808,3,3,0,0,1-2.978,3.209l-6.068,0a3.062,3.062,0,0,0-3.08,2.808,3,3,0,0,0,2.978,3.209l6.17,0a8.992,8.992,0,0,0,8.949-9.28,9.107,9.107,0,0,0-9.135-8.772" transform="translate(-432.423 -1.85)"/>
    <path id="Caminho_11" data-name="Caminho 11" d="M613.987,6.243h16.018V.226h-10.05a5.993,5.993,0,0,0-5.968,6.017" transform="translate(-466.193 -0.171)"/>
    <path id="Caminho_12" data-name="Caminho 12" d="M742.752,81.145a.119.119,0,0,1,.113-.12h1.489a2.217,2.217,0,0,1,0,4.435h-1.489a.119.119,0,0,1-.113-.12Zm1.527,3.541a1.448,1.448,0,0,0,0-2.9h-.716v2.9Z" transform="translate(-563.962 -61.361)"/>
    <rect id="Retângulo_1" data-name="Retângulo 1" width="0.823" height="4.435" rx="0.412" transform="translate(185.687 19.664)"/>
    <path id="Caminho_13" data-name="Caminho 13" d="M789.92,80.763a2.364,2.364,0,0,1,1.533.589.123.123,0,0,1,.007.177l-.39.412a.107.107,0,0,1-.164,0,1.417,1.417,0,0,0-.949-.367,1.461,1.461,0,0,0,.006,2.921,1.951,1.951,0,0,0,.748-.158V83.8h-.5a.115.115,0,0,1-.119-.114v-.5a.116.116,0,0,1,.119-.12h1.206a.119.119,0,0,1,.113.12v1.622a.122.122,0,0,1-.05.1,3.155,3.155,0,0,1-1.558.412,2.278,2.278,0,0,1,0-4.555" transform="translate(-598.063 -61.162)"/>
    <rect id="Retângulo_2" data-name="Retângulo 2" width="0.823" height="4.435" rx="0.412" transform="translate(196.649 19.664)"/>
    <path id="Caminho_14" data-name="Caminho 14" d="M833.551,81.785h-.961a.12.12,0,0,1-.119-.12v-.52a.12.12,0,0,1,.119-.12h2.746a.12.12,0,0,1,.119.12v.52a.12.12,0,0,1-.119.12h-.961v3.554a.124.124,0,0,1-.119.12h-.584a.124.124,0,0,1-.119-.12Z" transform="translate(-632.084 -61.361)"/>
    <path id="Caminho_15" data-name="Caminho 15" d="M853.569,85.1l1.954-4.264a.113.113,0,0,1,.107-.07h.063a.107.107,0,0,1,.107.07l1.935,4.264a.112.112,0,0,1-.107.165h-.547a.181.181,0,0,1-.182-.126l-.308-.684h-1.879l-.308.684a.189.189,0,0,1-.182.126h-.547a.112.112,0,0,1-.107-.165m2.715-1.349-.628-1.394h-.019l-.616,1.394Z" transform="translate(-648.095 -61.163)"/>
    <path id="Caminho_16" data-name="Caminho 16" d="M882.681,81.145a.12.12,0,0,1,.119-.12h.578a.124.124,0,0,1,.119.12V84.7h1.6a.12.12,0,0,1,.119.12v.519a.12.12,0,0,1-.119.12h-2.3a.12.12,0,0,1-.119-.12Z" transform="translate(-670.209 -61.361)"/>
    <path id="Caminho_17" data-name="Caminho 17" d="M742.871,148.877H745a.116.116,0,0,1,.119.12v.247a.115.115,0,0,1-.119.114h-2.13a.115.115,0,0,1-.119-.114V149a.116.116,0,0,1,.119-.12" transform="translate(-563.962 -112.745)"/>
    <path id="Caminho_18" data-name="Caminho 18" d="M761.812,133.96l.226-.393a.145.145,0,0,1,.214-.044,2.077,2.077,0,0,0,.949.392.526.526,0,0,0,.572-.488c0-.323-.27-.545-.8-.76-.591-.241-1.181-.621-1.181-1.369a1.259,1.259,0,0,1,1.414-1.216,2.2,2.2,0,0,1,1.257.424.158.158,0,0,1,.038.209l-.238.361a.165.165,0,0,1-.22.076,2.061,2.061,0,0,0-.874-.348.5.5,0,0,0-.553.443c0,.3.233.5.742.71.609.247,1.313.614,1.313,1.432a1.331,1.331,0,0,1-1.446,1.254,2.013,2.013,0,0,1-1.382-.494c-.056-.057-.088-.089-.031-.19" transform="translate(-578.412 -98.512)"/>
    <path id="Caminho_19" data-name="Caminho 19" d="M786.515,130.463a.12.12,0,0,1,.119-.12h2.558a.12.12,0,0,1,.119.12v.52a.12.12,0,0,1-.119.12h-1.86v1.039h1.552a.124.124,0,0,1,.119.12v.526a.12.12,0,0,1-.119.12h-1.552v1.109h1.86a.12.12,0,0,1,.119.12v.519a.12.12,0,0,1-.119.121h-2.558a.12.12,0,0,1-.119-.121Z" transform="translate(-597.191 -98.709)"/>
    <path id="Caminho_20" data-name="Caminho 20" d="M811.255,130.463a.12.12,0,0,1,.119-.12h1.8a1.367,1.367,0,0,1,1.37,1.362,1.4,1.4,0,0,1-.93,1.28l.861,1.609a.12.12,0,0,1-.107.184h-.66a.108.108,0,0,1-.1-.057l-.836-1.679h-.7v1.616a.124.124,0,0,1-.119.12h-.578a.12.12,0,0,1-.119-.12Zm1.847,1.9a.643.643,0,0,0,.622-.646.628.628,0,0,0-.622-.615h-1.024v1.261Z" transform="translate(-615.976 -98.709)"/>
    <path id="Caminho_21" data-name="Caminho 21" d="M835.614,130.508a.112.112,0,0,1,.107-.165h.641a.115.115,0,0,1,.107.07l1.206,2.724h.044l1.206-2.724a.116.116,0,0,1,.107-.07h.641a.112.112,0,0,1,.107.165l-1.948,4.264a.113.113,0,0,1-.107.069h-.063a.113.113,0,0,1-.107-.069Z" transform="translate(-634.462 -98.709)"/>
    <path id="Retângulo_3" data-name="Retângulo 3" d="M.411,0h0A.411.411,0,0,1,.823.411V4.024a.411.411,0,0,1-.411.411h0A.412.412,0,0,1,0,4.023V.411A.411.411,0,0,1,.411,0Z" transform="translate(208.151 31.634)"/>
    <path id="Caminho_22" data-name="Caminho 22" d="M883.226,130.083a2.117,2.117,0,0,1,1.521.589.119.119,0,0,1,.006.178l-.383.4a.1.1,0,0,1-.157,0,1.479,1.479,0,0,0-.968-.374,1.471,1.471,0,0,0,.007,2.94,1.5,1.5,0,0,0,.961-.361.115.115,0,0,1,.157,0l.39.406a.121.121,0,0,1-.007.171,2.147,2.147,0,0,1-1.527.615,2.281,2.281,0,0,1,0-4.561" transform="translate(-668.9 -98.512)"/>
    <path id="Caminho_23" data-name="Caminho 23" d="M909.534,130.463a.12.12,0,0,1,.119-.12h2.558a.12.12,0,0,1,.119.12v.52a.12.12,0,0,1-.119.12h-1.86v1.039H911.9a.124.124,0,0,1,.119.12v.526a.12.12,0,0,1-.119.12h-1.552v1.109h1.86a.12.12,0,0,1,.119.12v.519a.12.12,0,0,1-.119.121h-2.558a.12.12,0,0,1-.119-.121Z" transform="translate(-690.598 -98.709)"/>
    <path id="Caminho_24" data-name="Caminho 24" d="M933.11,133.96l.226-.393a.145.145,0,0,1,.214-.044,2.078,2.078,0,0,0,.949.392.526.526,0,0,0,.572-.488c0-.323-.27-.545-.8-.76-.591-.241-1.181-.621-1.181-1.369a1.259,1.259,0,0,1,1.414-1.216,2.2,2.2,0,0,1,1.257.424.158.158,0,0,1,.038.209l-.239.361a.165.165,0,0,1-.22.076,2.057,2.057,0,0,0-.874-.348.5.5,0,0,0-.553.443c0,.3.233.5.741.71.61.247,1.313.614,1.313,1.432a1.331,1.331,0,0,1-1.445,1.254,2.013,2.013,0,0,1-1.382-.494c-.057-.057-.088-.089-.031-.19" transform="translate(-708.476 -98.512)"/>
  </g>
</svg>
