<svg id="Grupo_2755" data-name="Grupo 2755" xmlns="http://www.w3.org/2000/svg" xmlns:xlink="http://www.w3.org/1999/xlink" width="43.562" height="38.265" viewBox="0 0 43.562 38.265">
  <defs>
    <clipPath id="clip-path">
      <rect id="Retângulo_1197" data-name="Retângulo 1197" width="43.562" height="38.265" fill="none" stroke="#707070" stroke-width="1"/>
    </clipPath>
  </defs>
  <g id="Grupo_2754" data-name="Grupo 2754" transform="translate(0 0)" clip-path="url(#clip-path)">
    <path id="Caminho_1008" data-name="Caminho 1008" d="M38.339,1H5.445A4.458,4.458,0,0,0,1,5.445v4.26H42.784V5.445A4.458,4.458,0,0,0,38.339,1Z" transform="translate(-0.111 -0.111)" fill="none" stroke="#181917" stroke-linecap="round" stroke-linejoin="round" stroke-width="1"/>
    <path id="Caminho_1009" data-name="Caminho 1009" d="M1,34.129a4.458,4.458,0,0,0,4.445,4.445H38.339a4.458,4.458,0,0,0,4.445-4.445V10.792H1Z" transform="translate(-0.111 -1.197)" fill="none" stroke="#181917" stroke-linecap="round" stroke-linejoin="round" stroke-width="1"/>
    <rect id="Retângulo_1192" data-name="Retângulo 1192" width="0.018" height="7.112" transform="translate(11.993 15.928)" fill="none" stroke="#181917" stroke-linecap="round" stroke-linejoin="round" stroke-width="1"/>
    <path id="Caminho_1010" data-name="Caminho 1010" d="M16.62,19.694H16.6V17.925H9.507v1.769H9.49V17.907h7.13Z" transform="translate(-1.053 -1.987)" fill="none" stroke="#181917" stroke-linecap="round" stroke-linejoin="round" stroke-width="1"/>
    <rect id="Retângulo_1193" data-name="Retângulo 1193" width="3.556" height="0.018" transform="translate(10.224 23.032)" fill="none" stroke="#181917" stroke-linecap="round" stroke-linejoin="round" stroke-width="1"/>
    <rect id="Retângulo_1194" data-name="Retângulo 1194" width="14.224" height="0.018" transform="translate(20.892 16.809)" fill="none" stroke="#181917" stroke-linecap="round" stroke-linejoin="round" stroke-width="1"/>
    <rect id="Retângulo_1195" data-name="Retângulo 1195" width="14.224" height="0.018" transform="translate(20.892 22.587)" fill="none" stroke="#181917" stroke-linecap="round" stroke-linejoin="round" stroke-width="1"/>
    <rect id="Retângulo_1196" data-name="Retângulo 1196" width="26.67" height="0.018" transform="translate(8.446 28.366)" fill="none" stroke="#181917" stroke-linecap="round" stroke-linejoin="round" stroke-width="1"/>
    <path id="Caminho_1011" data-name="Caminho 1011" d="M16.614,6.276a.435.435,0,1,1,.435-.436A.436.436,0,0,1,16.614,6.276Zm-3.918,0a.435.435,0,1,1,.436-.436A.436.436,0,0,1,12.7,6.276Zm-3.917,0a.435.435,0,1,1,.436-.436A.436.436,0,0,1,8.779,6.276Z" transform="translate(-0.926 -0.6)" fill="none" stroke="#181917" stroke-linecap="round" stroke-linejoin="round" stroke-width="1"/>
  </g>
</svg>
