<svg xmlns="http://www.w3.org/2000/svg" xmlns:xlink="http://www.w3.org/1999/xlink" width="355" height="312" viewBox="0 0 355 312">
  <defs>
    <clipPath id="clip-path">
      <rect id="Ret칙ngulo_2703" data-name="Ret칙ngulo 2703" width="355" height="312" fill="#fff" stroke="#707070" stroke-width="1"/>
    </clipPath>
  </defs>
  <g id="Grupo_de_m치scara_150" data-name="Grupo de m치scara 150" clip-path="url(#clip-path)">
    <g id="Grupo_6383" data-name="Grupo 6383" transform="translate(43.756 879.357) rotate(-90)">
      <circle id="Elipse_2640" data-name="Elipse 2640" cx="9.636" cy="9.636" r="9.636" transform="translate(434.357 0.048)" fill="#3d3d3d"/>
      <circle id="Elipse_2641" data-name="Elipse 2641" cx="9.636" cy="9.636" r="9.636" transform="translate(434.357 63.005)" fill="#3d3d3d"/>
      <circle id="Elipse_2642" data-name="Elipse 2642" cx="9.636" cy="9.636" r="9.636" transform="translate(434.357 122.107)" fill="#3d3d3d"/>
      <circle id="Elipse_2643" data-name="Elipse 2643" cx="9.636" cy="9.636" r="9.636" transform="translate(434.357 185.064)" fill="#3d3d3d"/>
      <circle id="Elipse_2644" data-name="Elipse 2644" cx="9.636" cy="9.636" r="9.636" transform="translate(434.357 244.166)" fill="#3d3d3d"/>
      <circle id="Elipse_2645" data-name="Elipse 2645" cx="9.636" cy="9.636" r="9.636" transform="translate(663.057 0.048)" fill="#3d3d3d"/>
      <circle id="Elipse_2646" data-name="Elipse 2646" cx="9.636" cy="9.636" r="9.636" transform="translate(663.057 63.005)" fill="#3d3d3d"/>
      <circle id="Elipse_2647" data-name="Elipse 2647" cx="9.636" cy="9.636" r="9.636" transform="translate(663.057 122.107)" fill="#3d3d3d"/>
      <circle id="Elipse_2648" data-name="Elipse 2648" cx="9.636" cy="9.636" r="9.636" transform="translate(663.057 185.064)" fill="#3d3d3d"/>
      <circle id="Elipse_2649" data-name="Elipse 2649" cx="9.636" cy="9.636" r="9.636" transform="translate(663.057 244.166)" fill="#3d3d3d"/>
      <circle id="Elipse_2650" data-name="Elipse 2650" cx="9.636" cy="9.636" r="9.636" transform="translate(510.162 0.048)" fill="#3d3d3d"/>
      <circle id="Elipse_2651" data-name="Elipse 2651" cx="9.636" cy="9.636" r="9.636" transform="translate(510.162 63.005)" fill="#3d3d3d"/>
      <circle id="Elipse_2652" data-name="Elipse 2652" cx="9.636" cy="9.636" r="9.636" transform="translate(510.162 122.107)" fill="#3d3d3d"/>
      <circle id="Elipse_2653" data-name="Elipse 2653" cx="9.636" cy="9.636" r="9.636" transform="translate(510.162 185.064)" fill="#3d3d3d"/>
      <circle id="Elipse_2654" data-name="Elipse 2654" cx="9.636" cy="9.636" r="9.636" transform="translate(510.162 244.166)" fill="#3d3d3d"/>
      <circle id="Elipse_2655" data-name="Elipse 2655" cx="9.636" cy="9.636" r="9.636" transform="translate(738.862 0.048)" fill="#3d3d3d"/>
      <circle id="Elipse_2656" data-name="Elipse 2656" cx="9.636" cy="9.636" r="9.636" transform="translate(738.862 63.005)" fill="#3d3d3d"/>
      <circle id="Elipse_2657" data-name="Elipse 2657" cx="9.636" cy="9.636" r="9.636" transform="translate(738.862 122.107)" fill="#3d3d3d"/>
      <circle id="Elipse_2658" data-name="Elipse 2658" cx="9.636" cy="9.636" r="9.636" transform="translate(738.862 185.064)" fill="#3d3d3d"/>
      <circle id="Elipse_2659" data-name="Elipse 2659" cx="9.636" cy="9.636" r="9.636" transform="translate(738.862 244.166)" fill="#3d3d3d"/>
      <circle id="Elipse_2660" data-name="Elipse 2660" cx="10.279" cy="10.279" r="10.279" transform="translate(585.967 0.048)" fill="#3d3d3d"/>
      <circle id="Elipse_2661" data-name="Elipse 2661" cx="10.279" cy="10.279" r="10.279" transform="translate(585.967 63.005)" fill="#3d3d3d"/>
      <circle id="Elipse_2662" data-name="Elipse 2662" cx="10.279" cy="10.279" r="10.279" transform="translate(585.967 122.107)" fill="#3d3d3d"/>
      <circle id="Elipse_2663" data-name="Elipse 2663" cx="10.279" cy="10.279" r="10.279" transform="translate(585.967 185.064)" fill="#3d3d3d"/>
      <circle id="Elipse_2664" data-name="Elipse 2664" cx="10.279" cy="10.279" r="10.279" transform="translate(585.967 244.166)" fill="#3d3d3d"/>
      <circle id="Elipse_2665" data-name="Elipse 2665" cx="10.279" cy="10.279" r="10.279" transform="translate(810.813 0.048)" fill="#3d3d3d"/>
      <circle id="Elipse_2666" data-name="Elipse 2666" cx="10.279" cy="10.279" r="10.279" transform="translate(810.813 63.005)" fill="#3d3d3d"/>
      <circle id="Elipse_2667" data-name="Elipse 2667" cx="10.279" cy="10.279" r="10.279" transform="translate(810.813 122.107)" fill="#3d3d3d"/>
      <circle id="Elipse_2668" data-name="Elipse 2668" cx="10.279" cy="10.279" r="10.279" transform="translate(810.813 185.064)" fill="#3d3d3d"/>
      <circle id="Elipse_2669" data-name="Elipse 2669" cx="10.279" cy="10.279" r="10.279" transform="translate(810.813 244.166)" fill="#3d3d3d"/>
    </g>
  </g>
</svg>
