<svg id="Grupo_6928" data-name="Grupo 6928" xmlns="http://www.w3.org/2000/svg" xmlns:xlink="http://www.w3.org/1999/xlink" width="207.587" height="198.133" viewBox="0 0 207.587 198.133">
  <defs>
    <clipPath id="clip-path">
      <rect id="Retângulo_2693" data-name="Retângulo 2693" width="207.587" height="198.133" fill="#fff" stroke="#fff" stroke-width="4"/>
    </clipPath>
  </defs>
  <g id="Grupo_6370" data-name="Grupo 6370" clip-path="url(#clip-path)">
    <path id="Caminho_2124" data-name="Caminho 2124" d="M322.775,266.866a4.025,4.025,0,0,0-2.848,6.873l13.955,13.954-14,14a3.991,3.991,0,0,0,.037,5.635,3.855,3.855,0,0,0,2.823,1.157h.057a3.954,3.954,0,0,0,2.842-1.158l13.941-13.942,13.954,13.955a3.953,3.953,0,0,0,2.8,1.145h.066a4.06,4.06,0,0,0,2.843-1.157l.043-.043a3.99,3.99,0,0,0-.043-5.629l-13.967-13.966,13.955-13.954a4.028,4.028,0,0,0-5.7-5.7L339.577,282l-13.954-13.955a4.019,4.019,0,0,0-2.848-1.177" transform="translate(-170.836 -143.035)" fill="#fff" stroke="#fff" stroke-width="4"/>
    <path id="Caminho_2125" data-name="Caminho 2125" d="M137.347,137.489a3.993,3.993,0,0,0,0,7.986h14.927L117.7,180.051A45.863,45.863,0,0,0,116.4,243.7l.264.308.108.154a4.043,4.043,0,0,0,.671.754l.249.231,25.2,25.2a4.005,4.005,0,0,0,2.8,1.145h.068a3.909,3.909,0,0,0,2.757-6.744L123.838,240.06l-.158-.2a4.019,4.019,0,0,0-.3-.34,38.012,38.012,0,0,1,.012-53.776l35.163-35.163v16.1a3.993,3.993,0,0,0,7.986,0l.006-25.325.01-.118a4.025,4.025,0,0,0-5.532-4.078l-.8.325Z" transform="translate(-55.85 -73.357)" fill="#fff" stroke="#fff" stroke-width="4"/>
    <path id="Caminho_2126" data-name="Caminho 2126" d="M20.844,26.524,34.8,40.479a4.042,4.042,0,0,0,2.786,1.145h.032a4.092,4.092,0,0,0,2.891-1.159,3.992,3.992,0,0,0,0-5.669L26.539,20.83,40.494,6.875A4.028,4.028,0,1,0,34.8,1.18L20.844,15.134,6.89,1.18a4.027,4.027,0,0,0-5.7,5.7L15.149,20.83,1.154,34.823a3.993,3.993,0,0,0,2.871,6.8A4.082,4.082,0,0,0,6.9,40.466Z" transform="translate(0)" fill="#fff" stroke="#fff" stroke-width="4"/>
    <path id="Caminho_2127" data-name="Caminho 2127" d="M271.415,10.133a25,25,0,1,0,25,25,25.024,25.024,0,0,0-25-25m0,42a17.009,17.009,0,1,1,17.01-17.009,17.028,17.028,0,0,1-17.01,17.009" transform="translate(-132.077 -5.431)" fill="#fff" stroke="#fff" stroke-width="4"/>
  </g>
</svg>
